<?xml version="1.0" encoding="utf-8"?>
<!-- Generator: Adobe Illustrator 24.1.2, SVG Export Plug-In . SVG Version: 6.00 Build 0)  -->
<svg version="1.1" id="Ebene_1" xmlns="http://www.w3.org/2000/svg" xmlns:xlink="http://www.w3.org/1999/xlink" x="0px" y="0px"
	 width="70px" height="70px" viewBox="0 0 70 70" style="enable-background:new 0 0 70 70;" xml:space="preserve">
<style type="text/css">
	.st0{fill:#FFFFFF;}
	.st1{fill:#002677;}
	.st2{fill:#00BED5;}
</style>
<circle class="st0" cx="35" cy="35" r="35"/>
<path class="st1" d="M37.1,30.3c-1.7,0-2.4,1.5-2.4,5.1c0,3.2,0.8,4.8,2.4,4.8c1.6,0,2.3-1.6,2.3-4.9C39.5,31.8,38.7,30.3,37.1,30.3
	z"/>
<path class="st1" d="M26.2,30.8c0,0.5,0.2,0.7,1,0.9v-1.9C26.7,29.8,26.2,30.2,26.2,30.8L26.2,30.8z"/>
<path class="st1" d="M27.9,33.6v2.2c0.8-0.1,1.2-0.5,1.2-1.1C29.1,34.2,28.9,33.9,27.9,33.6z"/>
<path class="st1" d="M8.8,21.9v26.2h52.5V21.9H8.8z M30.1,36.2c-0.6,0.6-1.4,0.9-2.2,0.9v1h-0.7v-1c-1.6,0-2.9-1.2-2.9-2.8
	c0,0,0,0,0-0.1H26l0,0c0,0.7,0.5,1.4,1.2,1.5v-2.3c0,0,0,0-0.1,0s-0.1,0-0.2,0c0,0-0.1,0-0.2,0c-1.6-0.4-2.2-1.1-2.2-2.3
	c0-0.7,0.3-1.4,0.9-1.9c0.5-0.4,1.2-0.6,1.8-0.6v-0.9h0.7v0.9c1.4,0,2.5,1.1,2.6,2.4h-1.6c0-0.6-0.4-1.1-1-1.1v2
	c0.7,0.1,1.4,0.4,2,0.8c0.6,0.4,0.9,1.1,0.8,1.8C30.8,35.2,30.6,35.8,30.1,36.2z M37.1,42.4c-3.3,0-5.2-2.7-5.2-7.2
	c0-4.6,1.9-7.3,5.3-7.3c1.7,0,3.2,0.9,4.1,2.3c0.8,1.5,1.1,3.2,1.1,5C42.3,39.7,40.3,42.4,37.1,42.4z"/>
<path class="st2" d="M8.8,40.8v7.3H16C16,44.1,12.8,40.8,8.8,40.8z"/>
<path class="st2" d="M8.8,29.2c4,0,7.3-3.3,7.3-7.3H8.8V29.2z"/>
<path class="st2" d="M54,21.9c0,4,3.3,7.3,7.3,7.3v-7.3C61.3,21.9,54,21.9,54,21.9z"/>
<path class="st2" d="M54,48.1h7.3v-7.3C57.2,40.8,54,44.1,54,48.1z"/>
</svg>
