<?xml version="1.0" encoding="utf-8"?>
<!-- Generator: Adobe Illustrator 24.1.2, SVG Export Plug-In . SVG Version: 6.00 Build 0)  -->
<svg version="1.1" id="Ebene_1" xmlns="http://www.w3.org/2000/svg" xmlns:xlink="http://www.w3.org/1999/xlink" x="0px" y="0px"
	 width="70px" height="70px" viewBox="0 0 70 70" style="enable-background:new 0 0 70 70;" xml:space="preserve">
<style type="text/css">
	.st0{fill:#002677;}
</style>
<g>
	<path class="st0" d="M37.2,27.9c-3.3,0-5.3,2.7-5.3,7.3c0,4.5,1.9,7.2,5.2,7.2c3.2,0,5.2-2.7,5.2-7.2c0.1-1.7-0.3-3.4-1.1-5
		C40.4,28.8,38.8,27.9,37.2,27.9z M37.1,40.1c-1.6,0-2.4-1.5-2.4-4.8c0-3.6,0.7-5.1,2.4-5.1c1.6,0,2.3,1.6,2.3,4.9
		C39.5,38.5,38.7,40.1,37.1,40.1z"/>
	<path class="st0" d="M29.9,32.8c-0.6-0.4-1.3-0.7-2-0.8v-2c0.6,0.1,1,0.5,1,1.1h1.6c-0.1-1.4-1.2-2.5-2.6-2.4v-0.9h-0.7v0.9
		c-0.7,0-1.3,0.2-1.8,0.6c-0.6,0.4-0.9,1.1-0.9,1.9c0,1.2,0.7,1.9,2.2,2.3c0.1,0,0.2,0,0.2,0c0.1,0,0.1,0,0.2,0c0,0,0,0,0.1,0v2.3
		c-0.7-0.1-1.3-0.8-1.2-1.5l0,0h-1.6c0,1.6,1.2,2.9,2.8,2.9c0,0,0,0,0.1,0v1H28v-1c0.8,0,1.6-0.3,2.2-0.9c0.4-0.4,0.7-1,0.7-1.6
		C30.8,33.9,30.5,33.2,29.9,32.8z M27.2,31.8c-0.8-0.2-1-0.4-1-0.9s0.4-1,0.9-1h0.1V31.8z M27.9,35.8v-2.2c1,0.3,1.2,0.5,1.2,1
		C29.1,35.3,28.7,35.7,27.9,35.8L27.9,35.8z"/>
	<path class="st0" d="M35,0C15.7,0,0,15.7,0,35s15.7,35,35,35s35-15.7,35-35S54.3,0,35,0z M8.8,21.9h6.6c0,3.6-2.9,6.6-6.6,6.6
		C8.8,28.5,8.8,21.9,8.8,21.9z M8.8,48.1v-6.6c3.6,0,6.6,2.9,6.6,6.6H8.8z M61.2,48.1h-6.6c0-3.6,2.9-6.6,6.6-6.6V48.1z M61.2,40.1
		c-4.4,0-8,3.6-8,8H16.8c0-4.4-3.6-8-8-8V29.9c4.4,0,8-3.6,8-8h36.5c0,4.4,3.6,8,8,8L61.2,40.1L61.2,40.1z M54.7,21.9h6.6v6.6
		C57.6,28.4,54.7,25.5,54.7,21.9z"/>
</g>
</svg>
