<?xml version="1.0" encoding="utf-8"?>
<!-- Generator: Adobe Illustrator 24.1.2, SVG Export Plug-In . SVG Version: 6.00 Build 0)  -->
<svg version="1.1" id="Ebene_1" xmlns="http://www.w3.org/2000/svg" xmlns:xlink="http://www.w3.org/1999/xlink" x="0px" y="0px"
	 width="70px" height="70px" viewBox="0 0 70 70" style="enable-background:new 0 0 70 70;" xml:space="preserve">
<style type="text/css">
	.st0{fill:none;}
	.st1{fill:#002677;}
</style>
<g>
	<circle class="st0" cx="35" cy="35" r="35"/>
	<g>
		<polygon class="st1" points="36.5,4.4 33.5,5.8 33.5,14.6 36.5,14.6 		"/>
		<polygon class="st1" points="21.6,19.5 14.4,12.3 13.3,15.4 19.5,21.6 		"/>
		<polygon class="st1" points="14.6,33.5 4.4,33.5 5.8,36.5 14.6,36.5 		"/>
		<polygon class="st1" points="12.3,55.6 15.4,56.7 21.6,50.5 19.5,48.4 		"/>
		<polygon class="st1" points="57.7,14.4 54.6,13.3 48.4,19.5 50.5,21.6 		"/>
		<path class="st1" d="M22.6,22.6c-6.8,6.8-6.8,17.9,0,24.7s17.9,6.8,24.7,0s6.8-17.9,0-24.7l0,0C40.5,15.8,29.5,15.8,22.6,22.6z
			 M24.7,45.3c-5.7-5.7-5.6-15,0.1-20.6s14.8-5.6,20.5,0L24.7,45.3z"/>
	</g>
</g>
</svg>
