<?xml version="1.0" encoding="utf-8"?>
<!-- Generator: Adobe Illustrator 24.1.2, SVG Export Plug-In . SVG Version: 6.00 Build 0)  -->
<svg version="1.1" id="Ebene_1" xmlns="http://www.w3.org/2000/svg" xmlns:xlink="http://www.w3.org/1999/xlink" x="0px" y="0px"
	 width="70px" height="70px" viewBox="0 0 70 70" style="enable-background:new 0 0 70 70;" xml:space="preserve">
<style type="text/css">
	.st0{fill:#002677;}
</style>
<g>
	<path class="st0" d="M35,0C15.7,0,0,15.7,0,35s15.7,35,35,35s35-15.7,35-35S54.3,0,35,0z M33.5,5.8l2.9-1.5v10.2h-2.9V5.8z
		 M14.4,12.3l7.2,7.2l-2.1,2.1l-6.2-6.2L14.4,12.3z M5.8,36.5l-1.5-2.9h10.2v2.9H5.8z M15.4,56.7l-3.1-1l7.2-7.2l2.1,2.1L15.4,56.7z
		 M47.4,47.4c-6.8,6.8-17.9,6.8-24.7,0s-6.8-17.9,0-24.7s17.9-6.8,24.7,0l0,0C54.2,29.5,54.2,40.5,47.4,47.4z M50.5,21.6l-2.1-2.1
		l6.2-6.2l3.1,1L50.5,21.6z"/>
	<path class="st0" d="M24.7,45.3c5.7,5.7,15,5.6,20.6-0.1s5.6-14.8,0-20.5L24.7,45.3z"/>
</g>
</svg>
