<?xml version="1.0" encoding="utf-8"?>
<!-- Generator: Adobe Illustrator 24.1.2, SVG Export Plug-In . SVG Version: 6.00 Build 0)  -->
<svg version="1.1" id="Ebene_1" xmlns="http://www.w3.org/2000/svg" xmlns:xlink="http://www.w3.org/1999/xlink" x="0px" y="0px"
	 width="70px" height="70px" viewBox="0 0 70 70" style="enable-background:new 0 0 70 70;" xml:space="preserve">
<style type="text/css">
	.st0{fill:#FFFFFF;}
	.st1{fill:#00BED5;}
	.st2{fill:#002677;}
</style>
<g>
	<circle class="st0" cx="35" cy="35" r="35"/>
	<polygon class="st1" points="36.5,4.4 33.5,5.8 33.5,14.6 36.5,14.6 	"/>
	<polygon class="st1" points="21.6,19.5 14.4,12.3 13.3,15.4 19.5,21.6 	"/>
	<polygon class="st1" points="14.6,33.5 4.4,33.5 5.8,36.5 14.6,36.5 	"/>
	<polygon class="st1" points="12.3,55.6 15.4,56.7 21.6,50.5 19.5,48.4 	"/>
	<polygon class="st1" points="54.6,13.3 48.4,19.5 50.5,21.6 57.7,14.4 	"/>
	<g>
		<path class="st2" d="M47.4,47.4c6.8-6.8,6.8-17.9,0-24.7L22.6,47.4C29.5,54.2,40.5,54.2,47.4,47.4z"/>
		<path class="st1" d="M22.6,22.6c-6.8,6.8-6.8,17.9,0,24.7l24.7-24.7C40.5,15.8,29.5,15.8,22.6,22.6z"/>
	</g>
</g>
</svg>
