<?xml version="1.0" encoding="utf-8"?>
<!-- Generator: Adobe Illustrator 24.1.2, SVG Export Plug-In . SVG Version: 6.00 Build 0)  -->
<svg version="1.1" id="Ebene_1" xmlns="http://www.w3.org/2000/svg" xmlns:xlink="http://www.w3.org/1999/xlink" x="0px" y="0px"
	 width="70px" height="70px" viewBox="0 0 70 70" style="enable-background:new 0 0 70 70;" xml:space="preserve">
<style type="text/css">
	.st0{fill:#002677;}
	.st1{fill:none;}
	.st2{fill:#00BED5;}
	.st3{fill:#FFFFFF;}
</style>
<circle class="st0" cx="35" cy="35" r="35"/>
<circle class="st1" cx="35" cy="11.7" r="1.5"/>
<circle class="st1" cx="46.7" cy="11.7" r="1.5"/>
<circle class="st1" cx="23.3" cy="11.7" r="1.5"/>
<path class="st2" d="M33.5,62.7l2.9-1.3V30.6h-2.9V62.7z M21.9,62.7l2.9-1.3V30.6h-2.9V62.7z M45.2,30.6v32.1l2.9-1.3V30.6H45.2z"/>
<path class="st3" d="M46.7,7.3c-2.4,0-4.4,1.9-4.4,4.4c0,1.9,1.2,3.5,2.9,4.1v14.9h2.9V15.8c2.3-0.8,3.5-3.3,2.7-5.6
	C50.2,8.5,48.5,7.3,46.7,7.3z M46.7,13.1c-0.8,0-1.5-0.7-1.5-1.5s0.7-1.5,1.5-1.5s1.5,0.7,1.5,1.5S47.5,13.1,46.7,13.1z"/>
<path class="st3" d="M35,7.3c-2.4,0-4.4,1.9-4.4,4.4c0,1.9,1.2,3.5,2.9,4.1v14.9h2.9V15.8c2.3-0.8,3.5-3.3,2.7-5.6
	C38.5,8.5,36.9,7.3,35,7.3z M35,13.1c-0.8,0-1.5-0.7-1.5-1.5s0.7-1.5,1.5-1.5s1.5,0.7,1.5,1.5S35.8,13.1,35,13.1z"/>
<path class="st3" d="M23.3,7.3c-2.4,0-4.4,1.9-4.4,4.4c0,1.9,1.2,3.5,2.9,4.1v14.9h2.9V15.8c2.3-0.8,3.5-3.3,2.7-5.6
	C26.8,8.5,25.2,7.3,23.3,7.3z M23.3,13.1c-0.8,0-1.5-0.7-1.5-1.5s0.7-1.5,1.5-1.5s1.5,0.7,1.5,1.5S24.1,13.1,23.3,13.1z"/>
</svg>
