<?xml version="1.0" encoding="utf-8"?>
<!-- Generator: Adobe Illustrator 24.1.2, SVG Export Plug-In . SVG Version: 6.00 Build 0)  -->
<svg version="1.1" id="Ebene_1" xmlns="http://www.w3.org/2000/svg" xmlns:xlink="http://www.w3.org/1999/xlink" x="0px" y="0px"
	 width="70px" height="70px" viewBox="0 0 70 70" style="enable-background:new 0 0 70 70;" xml:space="preserve">
<style type="text/css">
	.st0{fill:#002677;}
</style>
<circle class="st0" cx="23.3" cy="11.7" r="1.5"/>
<path class="st0" d="M35,0C15.7,0,0,15.7,0,35s15.7,35,35,35s35-15.7,35-35S54.3,0,35,0z M24.8,15.8v45.6l-2.9,1.3V15.8
	c-2.3-0.8-3.5-3.3-2.7-5.6s3.3-3.5,5.6-2.7s3.5,3.3,2.7,5.6C27,14.4,26,15.3,24.8,15.8z M36.5,15.8v45.6l-2.9,1.3V15.8
	c-2.3-0.8-3.5-3.3-2.7-5.6s3.3-3.5,5.6-2.7s3.5,3.3,2.7,5.6C38.7,14.4,37.7,15.3,36.5,15.8z M48.1,15.8v45.6l-2.9,1.3V15.8
	c-2.3-0.8-3.5-3.3-2.7-5.6s3.3-3.5,5.6-2.7s3.5,3.3,2.7,5.6C50.4,14.4,49.4,15.3,48.1,15.8z"/>
<circle class="st0" cx="46.7" cy="11.7" r="1.5"/>
<circle class="st0" cx="35" cy="11.7" r="1.5"/>
</svg>
