<?xml version="1.0" encoding="utf-8"?>
<!-- Generator: Adobe Illustrator 24.1.2, SVG Export Plug-In . SVG Version: 6.00 Build 0)  -->
<svg version="1.1" id="Layer_1" xmlns="http://www.w3.org/2000/svg" xmlns:xlink="http://www.w3.org/1999/xlink" x="0px" y="0px"
	 width="70px" height="70px" viewBox="0 0 70 70" style="enable-background:new 0 0 70 70;" xml:space="preserve">
<style type="text/css">
	.st0{fill:none;}
	.st1{fill:#002677;}
</style>
<circle class="st0" cx="35" cy="35" r="35"/>
<path class="st1" d="M55.4,60.1L40.5,45.2c-3,1.9-6.4,2.9-9.9,2.9c-10.5,0.1-19-8.4-19.1-18.8s8.4-19,18.8-19.1
	c10.5-0.1,19,8.4,19.1,18.8c0,3.5-0.9,7-2.8,10l8.8,8.7V60.1z M30.6,13.1c-8.9,0-16,7.2-16,16s7.2,16,16,16s16-7.2,16-16
	S39.5,13.1,30.6,13.1z M30.6,14.6c-8.1,0-14.6,6.5-14.6,14.6s6.5,14.6,14.6,14.6s14.6-6.5,14.6-14.6S38.7,14.6,30.6,14.6z
	 M39.3,32.1h-5.8v7.3h-5.8v-7.3h-7.3v-5.8h7.3V19h5.8v7.3h8L39.3,32.1z"/>
</svg>
