<?xml version="1.0" encoding="utf-8"?>
<!-- Generator: Adobe Illustrator 24.1.2, SVG Export Plug-In . SVG Version: 6.00 Build 0)  -->
<svg version="1.1" id="Layer_1" xmlns="http://www.w3.org/2000/svg" xmlns:xlink="http://www.w3.org/1999/xlink" x="0px" y="0px"
	 width="70px" height="70px" viewBox="0 0 70 70" style="enable-background:new 0 0 70 70;" xml:space="preserve">
<style type="text/css">
	.st0{fill:#002677;}
	.st1{fill:#00BED5;}
	.st2{fill:#FFFFFF;}
</style>
<circle class="st0" cx="35" cy="35" r="35"/>
<path class="st1" d="M55.4,60.1L40.5,45.2c-3,1.9-6.4,2.9-9.9,2.9c-10.5,0.1-19-8.4-19.1-18.8s8.4-19,18.8-19.1
	c10.5-0.1,19,8.4,19.1,18.8c0,3.5-0.9,7-2.8,10l8.8,8.7V60.1z M30.6,13.1c-8.9,0-16,7.2-16,16s7.2,16,16,16s16-7.2,16-16
	S39.5,13.1,30.6,13.1z"/>
<polygon class="st2" points="39.3,32.1 33.5,32.1 33.5,39.3 27.7,39.3 27.7,32.1 20.4,32.1 20.4,26.2 27.7,26.2 27.7,18.9 
	33.5,18.9 33.5,26.2 41.5,26.2 "/>
</svg>
