<?xml version="1.0" encoding="utf-8"?>
<!-- Generator: Adobe Illustrator 24.1.2, SVG Export Plug-In . SVG Version: 6.00 Build 0)  -->
<svg version="1.1" id="Ebene_1" xmlns="http://www.w3.org/2000/svg" xmlns:xlink="http://www.w3.org/1999/xlink" x="0px" y="0px"
	 width="70px" height="70px" viewBox="0 0 70 70" style="enable-background:new 0 0 70 70;" xml:space="preserve">
<style type="text/css">
	.st0{fill:#002677;}
	.st1{fill:#FFFFFF;}
	.st2{fill:#00BED5;}
</style>
<circle class="st0" cx="35" cy="35" r="35"/>
<path class="st1" d="M55.6,14.4c-1.7-1.7-4.5-1.7-6.2,0L30.9,32.9L15.4,52.5l2.1,2.1l19.6-15.5l18.6-18.6
	C57.3,18.9,57.3,16.1,55.6,14.4z"/>
<path class="st2" d="M50.6,41.4l1.3-1.3c0.8-0.8,0.8-2,0-2.7l0,0l0,0c-0.8-0.8-2-0.8-2.7,0l0,0l-0.3,0.3l-3.4-6.9L37.3,39l15.5,15.5
	l3.1-3.1L50.6,41.4z"/>
<path class="st2" d="M33.6,21.9c0.8-0.8,0.8-2,0-2.7c-0.8-0.8-2-0.8-2.7,0L30,20.1l-11.5-5.7l-3.1,3.1L30.9,33l8.2-8.2L33.6,21.9z"
	/>
<polygon class="st2" points="11.3,44.3 9.2,46.3 15.4,52.5 18.9,48.1 "/>
<polygon class="st2" points="17.5,54.6 23.7,60.8 25.7,58.7 21.9,51.1 "/>
</svg>
