<?xml version="1.0" encoding="utf-8"?>
<!-- Generator: Adobe Illustrator 24.1.2, SVG Export Plug-In . SVG Version: 6.00 Build 0)  -->
<svg version="1.1" id="Ebene_1" xmlns="http://www.w3.org/2000/svg" xmlns:xlink="http://www.w3.org/1999/xlink" x="0px" y="0px"
	 width="70px" height="70px" viewBox="0 0 70 70" style="enable-background:new 0 0 70 70;" xml:space="preserve">
<style type="text/css">
	.st0{fill:#002677;}
</style>
<path class="st0" d="M35,0C15.7,0,0,15.7,0,35s15.7,35,35,35s35-15.7,35-35S54.3,0,35,0z M45.3,30.9l3.4,6.9l0.3-0.3
	c0.8-0.8,2-0.8,2.7,0l0,0l0,0c0.8,0.8,0.8,2,0,2.7l0,0l-1.3,1.3l5,10.1l-3.1,3.1L37.1,39.1L22,51.1l3.8,7.6l-2.1,2.1L9.2,46.3
	l2.1-2.1l7.6,3.8l0,0l12-15.1L15.4,17.5l3.1-3.1L30,20.1l0.9-0.9c0.8-0.8,2-0.8,2.7,0c0.8,0.8,0.8,2,0,2.7l0,0l5.5,2.8l10.3-10.3
	c1.7-1.7,4.5-1.7,6.2,0s1.7,4.5,0,6.2l0,0L45.3,30.9L45.3,30.9z"/>
</svg>
