<?xml version="1.0" encoding="utf-8"?>
<!-- Generator: Adobe Illustrator 24.1.2, SVG Export Plug-In . SVG Version: 6.00 Build 0)  -->
<svg version="1.1" id="Ebene_1" xmlns="http://www.w3.org/2000/svg" xmlns:xlink="http://www.w3.org/1999/xlink" x="0px" y="0px"
	 width="70px" height="70px" viewBox="0 0 70 70" style="enable-background:new 0 0 70 70;" xml:space="preserve">
<style type="text/css">
	.st0{fill:none;}
	.st1{fill:#002677;}
</style>
<circle class="st0" cx="35" cy="35" r="35"/>
<path class="st1" d="M51.8,40.2c0.8-0.8,0.8-2,0-2.7l0,0l0,0c-0.8-0.8-2-0.8-2.7,0l0,0l-0.3,0.3l-3.4-6.9l0,0l10.3-10.3
	c1.7-1.7,1.7-4.5,0-6.2s-4.5-1.7-6.2,0l0,0L39.1,24.7l-5.5-2.8c0.8-0.8,0.8-2,0-2.7c-0.8-0.8-2-0.8-2.7,0l0,0L30,20.1l-11.5-5.7
	l-3.1,3.1L30.9,33l-12,15.1l0,0l-7.6-3.8l-2.1,2.1l14.4,14.4l2.1-2.1l-3.8-7.6l15.1-12l15.5,15.5l3.1-3.1l-5-10.1L51.8,40.2z"/>
</svg>
