<?xml version="1.0" encoding="utf-8"?>
<!-- Generator: Adobe Illustrator 24.1.2, SVG Export Plug-In . SVG Version: 6.00 Build 0)  -->
<svg version="1.1" id="Layer_1" xmlns="http://www.w3.org/2000/svg" xmlns:xlink="http://www.w3.org/1999/xlink" x="0px" y="0px"
	 width="70px" height="70px" viewBox="0 0 70 70" style="enable-background:new 0 0 70 70;" xml:space="preserve">
<style type="text/css">
	.st0{fill:#002677;}
</style>
<path class="st0" d="M59,35l-4.6-2.3l-0.9-0.5l-0.4-1l-4.8-10.8H13.1v21.9h0.8c1.6-2.8,5.2-3.7,8-2.1c0.9,0.5,1.6,1.2,2.1,2.1h22
	c1.6-2.8,5.2-3.7,8-2.1c0.9,0.5,1.6,1.2,2.1,2.1h3.7v-6.1C59.8,35.7,59.5,35.2,59,35z M29.8,32.1h-3.6v4.4h-4.4v-4.4h-4.4v-4.4h4.4
	v-4.4h4.4v4.4h5.1L29.8,32.1z M39.4,32.1v-8.7h7.1l3.9,8.7H39.4z"/>
<circle class="st0" cx="19" cy="45.2" r="2.9"/>
<path class="st0" d="M35,0C15.7,0,0,15.7,0,35s15.7,35,35,35s35-15.7,35-35S54.3,0,35,0z M61.2,45.2h-4.4c0,3.2-2.6,5.8-5.8,5.8
	s-5.8-2.6-5.8-5.8H24.8c0,3.2-2.6,5.8-5.8,5.8s-5.8-2.6-5.8-5.8H8.8c0-1,0.6-2,1.5-2.5V20.4c0-1.6,1.3-2.9,2.9-2.9h26.2
	c0-2,1.6-3.6,3.6-3.6s3.6,1.6,3.6,3.6h1.5c1.2,0,2.2,0.7,2.7,1.7L55.6,30l4.7,2.3c1.5,0.7,2.5,2.2,2.5,3.9v6.5
	c0.9,0.5,1.5,1.5,1.5,2.5H61.2z"/>
<circle class="st0" cx="51" cy="45.2" r="2.9"/>
</svg>
