<?xml version="1.0" encoding="utf-8"?>
<!-- Generator: Adobe Illustrator 24.1.2, SVG Export Plug-In . SVG Version: 6.00 Build 0)  -->
<svg version="1.1" id="Layer_1" xmlns="http://www.w3.org/2000/svg" xmlns:xlink="http://www.w3.org/1999/xlink" x="0px" y="0px"
	 width="70px" height="70px" viewBox="0 0 70 70" style="enable-background:new 0 0 70 70;" xml:space="preserve">
<style type="text/css">
	.st0{fill:#FFFFFF;}
	.st1{fill:#002677;}
	.st2{fill:#00BED5;}
</style>
<circle class="st0" cx="35" cy="35" r="35"/>
<path class="st1" d="M62.7,42.7v-6.5c0-1.7-0.9-3.2-2.4-3.9L55.7,30l-4.8-10.8c-0.5-1.1-1.5-1.7-2.7-1.8H13.1
	c-1.6,0-2.9,1.3-2.9,2.9v22.3c-0.9,0.5-1.5,1.5-1.5,2.5h4.4c0,3.2,2.6,5.8,5.8,5.8s5.8-2.6,5.8-5.8h20.4c0,3.2,2.6,5.8,5.8,5.8
	s5.8-2.6,5.8-5.8H64C64.2,44.2,63.6,43.2,62.7,42.7z M19,48.1c-1.6,0-2.9-1.3-2.9-2.9c0-1.6,1.3-2.9,2.9-2.9s2.9,1.3,2.9,2.9
	S20.6,48.1,19,48.1z M51,48.1c-1.6,0-2.9-1.3-2.9-2.9c0-1.6,1.3-2.9,2.9-2.9s2.9,1.3,2.9,2.9C54,46.8,52.7,48.1,51,48.1z"/>
<path class="st2" d="M43,13.9c-2,0-3.6,1.6-3.6,3.6h7.3C46.7,15.5,45,13.9,43,13.9z"/>
<polygon class="st2" points="39.4,32.1 39.4,23.3 46.5,23.3 50.4,32.1 "/>
<polygon class="st0" points="31.4,27.7 26.2,27.7 26.2,23.3 21.9,23.3 21.9,27.7 17.5,27.7 17.5,32.1 21.9,32.1 21.9,36.5 
	26.2,36.5 26.2,32.1 29.9,32.1 "/>
</svg>
