<?xml version="1.0" encoding="utf-8"?>
<!-- Generator: Adobe Illustrator 24.1.2, SVG Export Plug-In . SVG Version: 6.00 Build 0)  -->
<svg version="1.1" id="Layer_1" xmlns="http://www.w3.org/2000/svg" xmlns:xlink="http://www.w3.org/1999/xlink" x="0px" y="0px"
	 width="70px" height="70px" viewBox="0 0 70 70" style="enable-background:new 0 0 70 70;" xml:space="preserve">
<style type="text/css">
	.st0{fill:none;}
	.st1{fill:#002677;}
</style>
<circle class="st0" cx="35" cy="35" r="35"/>
<path class="st1" d="M39.4,32.1v-8.7h7.1l3.9,8.7H39.4z M31.4,27.7h-5.1v-4.4h-4.4v4.4h-4.4v4.4h4.4v4.4h4.4v-4.4h3.6L31.4,27.7z
	 M64.2,45.2h-7.3c0,3.2-2.6,5.8-5.8,5.8s-5.8-2.6-5.8-5.8H24.8c0,3.2-2.6,5.8-5.8,5.8s-5.8-2.6-5.8-5.8H8.8c0-1,0.6-2,1.5-2.5V20.4
	c0-1.6,1.3-2.9,2.9-2.9h26.2c0-2,1.6-3.6,3.6-3.6s3.6,1.6,3.6,3.6h1.5c1.2,0,2.2,0.7,2.7,1.7L55.6,30l4.7,2.3
	c1.5,0.7,2.5,2.2,2.5,3.9v6.5C63.6,43.2,64.2,44.2,64.2,45.2z M21.9,45.2c0-1.6-1.3-2.9-2.9-2.9s-3,1.3-3,2.9c0,1.6,1.3,2.9,2.9,2.9
	S21.9,46.8,21.9,45.2z M54,45.2c0-1.6-1.3-2.9-2.9-2.9s-2.9,1.3-2.9,2.9c0,1.6,1.3,2.9,2.9,2.9S54,46.8,54,45.2z M59.8,36.2
	c0-0.5-0.3-1.1-0.8-1.3l-4.6-2.3l-0.9-0.5l-0.4-1l-4.8-10.8H13.1v21.9h0.8c1.6-2.8,5.2-3.7,8-2.1c0.9,0.5,1.6,1.2,2.1,2.1h22
	c1.6-2.8,5.2-3.7,8-2.1c0.9,0.5,1.6,1.2,2.1,2.1h3.7V36.2z"/>
</svg>
