<?xml version="1.0" encoding="utf-8"?>
<!-- Generator: Adobe Illustrator 24.1.2, SVG Export Plug-In . SVG Version: 6.00 Build 0)  -->
<svg version="1.1" id="Ebene_1" xmlns="http://www.w3.org/2000/svg" xmlns:xlink="http://www.w3.org/1999/xlink" x="0px" y="0px"
	 width="70px" height="70px" viewBox="0 0 70 70" style="enable-background:new 0 0 70 70;" xml:space="preserve">
<style type="text/css">
	.st0{fill:#002677;}
</style>
<g>
	<polygon class="st0" points="23.3,22.7 33.5,18.6 33.5,14.6 23.3,14.6 	"/>
	<rect x="37.9" y="46.7" class="st0" width="5.8" height="7.3"/>
	<path class="st0" d="M35,0C15.7,0,0,15.7,0,35s15.7,35,35,35s35-15.7,35-35S54.3,0,35,0z M55,43.3l-0.2,1.6l-6.2,2.2l-0.5-1.4
		L55,43.3z M46.7,54c0,1.6-1.3,2.9-2.9,2.9H38l0,0c-9.7,0-17.5-7.8-17.5-17.5l0,0V11.7h16v5.7l1.5-0.6v27h5.8c1.6,0,2.9,1.3,2.9,2.9
		V54z M54.3,57.3l-6.2-2.2l0.5-1.4l6.9,2.5L54.3,57.3z M56.1,51h-6.6v-1.5h7.3L56.1,51z"/>
</g>
</svg>
