<?xml version="1.0" encoding="utf-8"?>
<!-- Generator: Adobe Illustrator 24.1.2, SVG Export Plug-In . SVG Version: 6.00 Build 0)  -->
<svg version="1.1" id="Ebene_1" xmlns="http://www.w3.org/2000/svg" xmlns:xlink="http://www.w3.org/1999/xlink" x="0px" y="0px"
	 width="70px" height="70px" viewBox="0 0 70 70" style="enable-background:new 0 0 70 70;" xml:space="preserve">
<style type="text/css">
	.st0{fill:none;}
	.st1{fill:#002677;}
</style>
<g>
	<circle class="st0" cx="35" cy="35" r="35"/>
	<g>
		<polygon class="st1" points="49.6,49.6 49.6,51 56.1,51 56.9,49.6 		"/>
		<polygon class="st1" points="48.1,55.1 54.3,57.3 55.5,56.2 48.6,53.7 		"/>
		<polygon class="st1" points="54.8,44.9 55,43.3 48.1,45.8 48.6,47.1 		"/>
		<path class="st1" d="M43.8,43.8H38v-27l-1.5,0.6v-5.7h-16v27.7c0,9.7,7.8,17.5,17.5,17.5l0,0l0,0h5.8c1.6,0,2.9-1.3,2.9-2.9v-7.3
			C46.7,45.1,45.4,43.8,43.8,43.8z M23.3,14.6h10.2v4l-10.2,4.1V14.6z M43.8,54H38v-7.3h5.8V54z"/>
	</g>
</g>
</svg>
