<?xml version="1.0" encoding="utf-8"?>
<!-- Generator: Adobe Illustrator 24.1.2, SVG Export Plug-In . SVG Version: 6.00 Build 0)  -->
<svg version="1.1" id="Ebene_1" xmlns="http://www.w3.org/2000/svg" xmlns:xlink="http://www.w3.org/1999/xlink" x="0px" y="0px"
	 width="70px" height="70px" viewBox="0 0 70 70" style="enable-background:new 0 0 70 70;" xml:space="preserve">
<style type="text/css">
	.st0{fill:#002677;}
</style>
<path class="st0" d="M35,19.3L43.2,1c-5.4-1.3-10.9-1.3-16.3,0L35,19.3z"/>
<path class="st0" d="M50.7,3.7l-8.8,19.8c1.9,0.5,3.3,2.2,3.3,4.2v1.7c8.3,5.6,10.5,17,4.9,25.3c-3.4,5-9,8-15.1,8
	c-0.7,0-1.4,0-2.1-0.1c-8.1-0.9-14.5-7.1-15.9-15.1c-1.2-7,1.9-14.1,7.8-18.1v-1.7c0-2,1.4-3.7,3.3-4.2L19.3,3.7
	C2,12.4-4.9,33.4,3.7,50.7s29.7,24.3,47,15.6s24.3-29.7,15.6-47C62.9,12.6,57.4,7.1,50.7,3.7z"/>
<path class="st0" d="M40.8,26.2H38l1.3,2.9h-8.7l-1.3-2.9h-0.2c-0.8,0-1.5,0.7-1.5,1.5V31c-7.4,4-10.2,13.3-6.2,20.8
	c2.4,4.4,6.7,7.3,11.7,7.9c0.6,0.1,1.2,0.1,1.8,0.1c8.5,0,15.3-6.9,15.3-15.3c0-5.6-3.1-10.8-8-13.5v-3.3
	C42.3,26.9,41.6,26.2,40.8,26.2z M43.7,41.7l-5.2,4.2l1.9,6.6l-5.4-4l-5.4,4l1.9-6.6l-5.2-4.2l6.6-0.1L35,35l2.2,6.5L43.7,41.7z"/>
</svg>
