<?xml version="1.0" encoding="utf-8"?>
<!-- Generator: Adobe Illustrator 24.1.2, SVG Export Plug-In . SVG Version: 6.00 Build 0)  -->
<svg version="1.1" id="Ebene_1" xmlns="http://www.w3.org/2000/svg" xmlns:xlink="http://www.w3.org/1999/xlink" x="0px" y="0px"
	 width="70px" height="70px" viewBox="0 0 70 70" style="enable-background:new 0 0 70 70;" xml:space="preserve">
<style type="text/css">
	.st0{fill:#FFFFFF;}
	.st1{fill:#00BED5;}
	.st2{fill:#002677;}
</style>
<circle class="st0" cx="35" cy="35" r="35"/>
<g>
	<circle class="st0" cx="35" cy="35" r="35"/>
	<path class="st1" d="M42.3,31v-3.3c0-0.8-0.7-1.5-1.5-1.5H38l1.3,2.9h-8.8l-1.3-2.9H29c-0.8,0-1.5,0.7-1.5,1.5V31
		c-7.4,4-10.2,13.3-6.2,20.8S34.6,62,42.1,58s10.2-13.3,6.2-20.8C47,34.5,44.9,32.4,42.3,31z M40.4,52.5l-5.4-4l-5.4,4l1.9-6.6
		l-5.2-4.2l6.6-0.1L35,35l2.2,6.5l6.6,0.1l-5.2,4.2L40.4,52.5z"/>
	<path class="st2" d="M39.4,29.1l-1.3-2.9h2.6l10-22.5c-2.4-1.2-4.9-2.1-7.5-2.7L35,19.3L26.9,1c-2.6,0.6-5.1,1.5-7.5,2.7l11.3,25.4
		H39.4z"/>
</g>
</svg>
