<?xml version="1.0" encoding="utf-8"?>
<!-- Generator: Adobe Illustrator 24.1.2, SVG Export Plug-In . SVG Version: 6.00 Build 0)  -->
<svg version="1.1" id="Ebene_1" xmlns="http://www.w3.org/2000/svg" xmlns:xlink="http://www.w3.org/1999/xlink" x="0px" y="0px"
	 width="70px" height="70px" viewBox="0 0 70 70" style="enable-background:new 0 0 70 70;" xml:space="preserve">
<style type="text/css">
	.st0{fill:#002677;}
	.st1{fill:none;}
</style>
<polygon class="st0" points="37.2,41.5 35,35 32.8,41.5 26.2,41.7 31.5,45.9 29.6,52.5 35,48.5 40.4,52.5 38.5,45.9 43.8,41.7 "/>
<path class="st0" d="M45.2,29.4v-1.7c0-2-1.4-3.7-3.3-4.2l8.8-19.8c-2.4-1.2-4.9-2.1-7.5-2.8L35,19.3L26.8,1
	c-2.6,0.6-5.1,1.5-7.5,2.8l8.8,19.8c-1.9,0.5-3.3,2.2-3.3,4.2v1.7c-5.9,4-8.9,11.1-7.8,18.1c1.3,8,7.8,14.2,15.9,15.1
	c0.7,0.1,1.4,0.1,2.1,0.1c10.1,0,18.2-8.2,18.2-18.2C53.2,38.4,50.2,32.8,45.2,29.4z M35,59.8c-0.6,0-1.2,0-1.8-0.1
	c-8.4-1-14.4-8.6-13.4-17c0.6-5,3.5-9.3,7.9-11.7v-3.3c0-0.8,0.7-1.5,1.5-1.5h0.2l1.3,2.9h8.8l-1.3-2.9H41c0.8,0,1.5,0.7,1.5,1.5V31
	c7.4,4,10.2,13.3,6.2,20.8C45.8,56.7,40.6,59.8,35,59.8z"/>
<circle class="st1" cx="35" cy="35" r="35"/>
</svg>
