<?xml version="1.0" encoding="utf-8"?>
<!-- Generator: Adobe Illustrator 24.1.2, SVG Export Plug-In . SVG Version: 6.00 Build 0)  -->
<svg version="1.1" id="Ebene_1" xmlns="http://www.w3.org/2000/svg" xmlns:xlink="http://www.w3.org/1999/xlink" x="0px" y="0px"
	 width="70px" height="70px" viewBox="0 0 70 70" style="enable-background:new 0 0 70 70;" xml:space="preserve">
<style type="text/css">
	.st0{fill:#FFFFFF;}
	.st1{fill:#002677;}
	.st2{fill:#00BED5;}
</style>
<circle class="st0" cx="35" cy="35" r="35"/>
<path class="st1" d="M14.6,19h40.8c1.6,0,2.9,1.3,2.9,2.9v26.2c0,1.6-1.3,2.9-2.9,2.9H14.6c-1.6,0-2.9-1.3-2.9-2.9V21.9
	C11.7,20.3,13,19,14.6,19z"/>
<rect x="14.6" y="23.3" class="st0" width="40.8" height="4.9"/>
<rect x="16" y="33.5" class="st2" width="10.2" height="10.2"/>
<polygon class="st2" points="30.6,43.8 52.5,43.8 54.2,40.8 30.6,40.8 "/>
<polygon class="st2" points="54.2,33.5 30.6,33.5 30.6,36.5 52.5,36.5 "/>
</svg>
