<?xml version="1.0" encoding="utf-8"?>
<!-- Generator: Adobe Illustrator 24.1.2, SVG Export Plug-In . SVG Version: 6.00 Build 0)  -->
<svg version="1.1" id="Ebene_1" xmlns="http://www.w3.org/2000/svg" xmlns:xlink="http://www.w3.org/1999/xlink" x="0px" y="0px"
	 width="70px" height="70px" viewBox="0 0 70 70" style="enable-background:new 0 0 70 70;" xml:space="preserve">
<style type="text/css">
	.st0{fill:none;}
	.st1{fill:#002677;}
</style>
<circle class="st0" cx="35" cy="35" r="35"/>
<path class="st1" d="M55.4,19H14.6c-1.6,0-2.9,1.3-2.9,2.9v26.2c0,1.6,1.3,2.9,2.9,2.9h40.8c1.6,0,2.9-1.3,2.9-2.9V21.9
	C58.3,20.3,57,19,55.4,19z M26.2,43.8H16V33.5h10.2V43.8z M52.5,43.8H30.6v-2.9h23.6L52.5,43.8z M52.5,36.5H30.6v-2.9h23.6
	L52.5,36.5z M55.4,28.3H14.6v-4.9h40.8V28.3z"/>
</svg>
