<?xml version="1.0" encoding="utf-8"?>
<!-- Generator: Adobe Illustrator 24.1.2, SVG Export Plug-In . SVG Version: 6.00 Build 0)  -->
<svg version="1.1" id="Ebene_1" xmlns="http://www.w3.org/2000/svg" xmlns:xlink="http://www.w3.org/1999/xlink" x="0px" y="0px"
	 width="70px" height="70px" viewBox="0 0 70 70" style="enable-background:new 0 0 70 70;" xml:space="preserve">
<style type="text/css">
	.st0{fill:#002677;}
</style>
<polygon class="st0" points="14.6,39.4 23.1,39.4 27.5,32.1 14.6,32.1 "/>
<path class="st0" d="M23.3,26.2h-8.8v2.9h11.7C26.2,27.6,24.9,26.3,23.3,26.2z"/>
<path class="st0" d="M35,0C15.7,0,0,15.7,0,35s15.7,35,35,35s35-15.7,35-35S54.3,0,35,0z M58.3,48.1v-5.8H14.6v5.8h-2.9V17.5h2.9
	v5.8h8.8c3.2,0,5.8,2.6,5.8,5.8h27.7c2.4,0,4.4,2,4.4,4.4v14.6H58.3z"/>
</svg>
