<?xml version="1.0" encoding="utf-8"?>
<!-- Generator: Adobe Illustrator 24.1.2, SVG Export Plug-In . SVG Version: 6.00 Build 0)  -->
<svg version="1.1" id="Ebene_1" xmlns="http://www.w3.org/2000/svg" xmlns:xlink="http://www.w3.org/1999/xlink" x="0px" y="0px"
	 width="70px" height="70px" viewBox="0 0 70 70" style="enable-background:new 0 0 70 70;" xml:space="preserve">
<style type="text/css">
	.st0{fill:#002677;}
</style>
<g>
	<path class="st0" d="M36.9,29.8l4.5-2c0.3-0.1,0.7,0,0.8,0.3l2,4.5c0.1,0.3,0,0.7-0.3,0.8l-4.5,2c-0.3,0.1-0.7,0-0.8-0.3l-2-4.5
		C36.5,30.3,36.6,30,36.9,29.8z"/>
	<path class="st0" d="M35.1,46.3l4.5-2c0.3-0.1,0.7,0,0.8,0.3l2,4.5c0.1,0.3,0,0.7-0.3,0.8l-4.5,2c-0.3,0.1-0.7,0-0.8-0.3l-2-4.5
		C34.7,46.8,34.8,46.4,35.1,46.3z"/>
	<polygon class="st0" points="22.6,21.9 47.4,21.9 47.8,17.5 22.2,17.5 	"/>
	<path class="st0" d="M26,40.5l2-4.5c0.1-0.3,0.5-0.4,0.8-0.3l4.5,2c0.3,0.1,0.4,0.5,0.3,0.8l-2,4.5c-0.1,0.3-0.5,0.4-0.8,0.3
		l-4.5-2C26,41.2,25.9,40.8,26,40.5z"/>
	<path class="st0" d="M35,0C15.7,0,0,15.7,0,35s15.7,35,35,35s35-15.7,35-35S54.3,0,35,0z M47,55.2c-0.2,1.8-1.7,3.1-3.5,3.1h-17
		c-1.8,0-3.3-1.4-3.5-3.1l-4-40.6h32L47,55.2z"/>
</g>
</svg>
