<?xml version="1.0" encoding="utf-8"?>
<!-- Generator: Adobe Illustrator 24.1.2, SVG Export Plug-In . SVG Version: 6.00 Build 0)  -->
<svg version="1.1" id="Ebene_1" xmlns="http://www.w3.org/2000/svg" xmlns:xlink="http://www.w3.org/1999/xlink" x="0px" y="0px"
	 width="70px" height="70px" viewBox="0 0 70 70" style="enable-background:new 0 0 70 70;" xml:space="preserve">
<style type="text/css">
	.st0{fill:#002677;}
	.st1{fill:#00BED5;}
	.st2{fill:#FFFFFF;}
</style>
<circle class="st0" cx="35" cy="35" r="35"/>
<path class="st1" d="M21.9,21.9L25.2,55c0.1,0.7,0.6,1.2,1.3,1.2h17c0.7,0,1.2-0.5,1.3-1.2l3.3-33.1L21.9,21.9z"/>
<path class="st2" d="M19,14.6l4,40.6c0.2,1.8,1.7,3.1,3.5,3.1h17c1.8,0,3.3-1.4,3.5-3.1l4-40.6H19z M44.8,55
	c-0.1,0.7-0.6,1.2-1.3,1.2h-17c-0.7,0-1.2-0.5-1.3-1.2l-3.3-33.1h26.2L44.8,55z"/>
<path class="st2" d="M36.9,29.8l4.5-2c0.3-0.1,0.7,0,0.8,0.3l2,4.5c0.1,0.3,0,0.7-0.3,0.8l-4.5,2c-0.3,0.1-0.7,0-0.8-0.3l-2-4.5
	C36.5,30.3,36.6,30,36.9,29.8L36.9,29.8z"/>
<path class="st2" d="M26,40.5l2-4.5c0.1-0.3,0.5-0.5,0.8-0.3l4.5,2c0.3,0.1,0.5,0.5,0.3,0.8l-2,4.5c-0.1,0.3-0.5,0.4-0.8,0.3l-4.5-2
	C26,41.2,25.9,40.8,26,40.5L26,40.5L26,40.5z"/>
<path class="st2" d="M35.1,46.3l4.5-2c0.3-0.1,0.7,0,0.8,0.3l0,0l2,4.5c0.1,0.3,0,0.7-0.3,0.8l0,0l-4.5,2c-0.3,0.1-0.7,0-0.8-0.3
	l-2-4.5C34.7,46.8,34.8,46.4,35.1,46.3z"/>
</svg>
