<?xml version="1.0" encoding="utf-8"?>
<!-- Generator: Adobe Illustrator 24.1.2, SVG Export Plug-In . SVG Version: 6.00 Build 0)  -->
<svg version="1.1" id="Ebene_1" xmlns="http://www.w3.org/2000/svg" xmlns:xlink="http://www.w3.org/1999/xlink" x="0px" y="0px"
	 width="70px" height="70px" viewBox="0 0 70 70" style="enable-background:new 0 0 70 70;" xml:space="preserve">
<style type="text/css">
	.st0{fill:#002677;}
	.st1{fill:none;}
</style>
<g>
	<path class="st0" d="M19,14.6l4,40.6c0.2,1.8,1.7,3.1,3.5,3.1h17c1.8,0,3.3-1.4,3.5-3.1l4-40.6H19z M33.6,38.5l-2,4.5
		c-0.1,0.3-0.5,0.4-0.8,0.3l-4.5-2c-0.3-0.1-0.4-0.5-0.3-0.8l2-4.5c0.1-0.3,0.5-0.4,0.8-0.3l4.5,2C33.6,37.8,33.7,38.1,33.6,38.5
		L33.6,38.5z M42.1,50l-4.5,2c-0.3,0.1-0.7,0-0.8-0.3l0,0l-2-4.5c-0.1-0.3,0-0.7,0.3-0.8l4.5-2c0.3-0.1,0.7,0,0.8,0.3l2,4.5
		C42.5,49.5,42.4,49.8,42.1,50L42.1,50L42.1,50z M43.9,33.5l-4.5,2c-0.3,0.1-0.7,0-0.8-0.3l0,0l-1.9-4.5c-0.1-0.3,0-0.7,0.3-0.8l0,0
		l4.5-2c0.3-0.1,0.7,0,0.8,0.3l2,4.5C44.4,33,44.2,33.4,43.9,33.5L43.9,33.5L43.9,33.5z M22.6,21.9l-0.4-4.4h25.6l-0.4,4.4H22.6z"/>
	<circle class="st1" cx="35" cy="35" r="35"/>
</g>
</svg>
