<?xml version="1.0" encoding="utf-8"?>
<!-- Generator: Adobe Illustrator 24.1.2, SVG Export Plug-In . SVG Version: 6.00 Build 0)  -->
<svg version="1.1" id="Ebene_1" xmlns="http://www.w3.org/2000/svg" xmlns:xlink="http://www.w3.org/1999/xlink" x="0px" y="0px"
	 width="70px" height="70px" viewBox="0 0 70 70" style="enable-background:new 0 0 70 70;" xml:space="preserve">
<style type="text/css">
	.st0{fill:#002677;}
</style>
<path class="st0" d="M54.7,15.3H15.3v39.4h39.4V15.3z M24.8,53.2h-8v-8h8V53.2z M24.8,34.3h-8v-8h8V34.3z M34.3,53.2h-8v-8h8V53.2z
	 M34.3,43.8h-8v-8h8V43.8z M34.3,34.3h-8v-8h8V34.3z M34.3,24.8h-8v-8h8V24.8z M43.8,34.3h-8v-8h8V34.3z M53.2,43.8h-8v-8h8V43.8z
	 M53.2,34.3h-8v-8h8V34.3z"/>
<path class="st0" d="M35,0C15.7,0,0,15.7,0,35s15.7,35,35,35s35-15.7,35-35S54.3,0,35,0z M56.9,56.9H13.1V13.1h43.8V56.9z"/>
</svg>
