<?xml version="1.0" encoding="utf-8"?>
<!-- Generator: Adobe Illustrator 24.1.2, SVG Export Plug-In . SVG Version: 6.00 Build 0)  -->
<svg version="1.1" id="Ebene_1" xmlns="http://www.w3.org/2000/svg" xmlns:xlink="http://www.w3.org/1999/xlink" x="0px" y="0px"
	 width="70px" height="70px" viewBox="0 0 70 70" style="enable-background:new 0 0 70 70;" xml:space="preserve">
<style type="text/css">
	.st0{fill:#002677;}
	.st1{fill:none;}
</style>
<path class="st0" d="M13.1,13.1v43.8h43.8V13.1H13.1z M24.8,53.2h-8v-8h8V53.2z M24.8,34.3h-8v-8h8V34.3z M34.3,53.2h-8v-8h8V53.2z
	 M34.3,43.8h-8v-8h8V43.8z M34.3,34.3h-8v-8h8V34.3z M34.3,24.8h-8v-8h8V24.8z M43.8,34.3h-8v-8h8V34.3z M53.2,43.8h-8v-8h8V43.8z
	 M53.2,34.3h-8v-8h8V34.3z"/>
<circle class="st1" cx="35" cy="35" r="35"/>
</svg>
