<?xml version="1.0" encoding="utf-8"?>
<!-- Generator: Adobe Illustrator 24.1.2, SVG Export Plug-In . SVG Version: 6.00 Build 0)  -->
<svg version="1.1" id="Ebene_1" xmlns="http://www.w3.org/2000/svg" xmlns:xlink="http://www.w3.org/1999/xlink" x="0px" y="0px"
	 width="70px" height="70px" viewBox="0 0 70 70" style="enable-background:new 0 0 70 70;" xml:space="preserve">
<style type="text/css">
	.st0{fill:#002677;}
</style>
<path class="st0" d="M16,54h38V21.9H16V54z M42.3,26.2h5.8V32h-5.8V26.2z M42.3,35h5.8v5.8h-5.8V35z M42.3,43.8h5.8v5.8h-5.8V43.8z
	 M32.1,26.2h5.8V32h-5.8V26.2z M32.1,35h5.8v5.8h-5.8V35z M32.1,43.8h5.8v5.8h-5.8V43.8z M21.9,26.2h5.8V32h-5.8
	C21.9,32,21.9,26.2,21.9,26.2z M21.9,35h5.8v5.8h-5.8C21.9,40.8,21.9,35,21.9,35z M21.9,43.8h5.8v5.8h-5.8
	C21.9,49.6,21.9,43.8,21.9,43.8z"/>
<path class="st0" d="M35,0C15.7,0,0,15.7,0,35s15.7,35,35,35s35-15.7,35-35S54.3,0,35,0z M43.8,10.2c0-0.8,0.7-1.5,1.5-1.5
	s1.5,0.7,1.5,1.5V16c0,0.8-0.7,1.5-1.5,1.5s-1.5-0.7-1.5-1.5V10.2z M23.3,10.2c0-0.8,0.7-1.5,1.5-1.5s1.5,0.7,1.5,1.5V16
	c0,0.8-0.7,1.5-1.5,1.5s-1.5-0.7-1.5-1.5V10.2z M56.9,21.9V54c0,1.6-1.3,2.9-2.9,2.9H16c-1.6,0-2.9-1.3-2.9-2.9V16
	c0-1.6,1.3-2.9,2.9-2.9h5.8V16c0,1.6,1.3,2.9,2.9,2.9s2.9-1.3,2.9-2.9v-2.9h14.6V16c0,1.6,1.3,2.9,2.9,2.9c1.6,0,2.9-1.3,2.9-2.9
	v-2.9h6c1.6,0,2.9,1.3,2.9,2.9V21.9z"/>
</svg>
