<?xml version="1.0" encoding="utf-8"?>
<!-- Generator: Adobe Illustrator 24.1.2, SVG Export Plug-In . SVG Version: 6.00 Build 0)  -->
<svg version="1.1" id="Ebene_1" xmlns="http://www.w3.org/2000/svg" xmlns:xlink="http://www.w3.org/1999/xlink" x="0px" y="0px"
	 width="70px" height="70px" viewBox="0 0 70 70" style="enable-background:new 0 0 70 70;" xml:space="preserve">
<style type="text/css">
	.st0{fill:#FFFFFF;}
	.st1{fill:#002677;}
	.st2{fill:#00BED5;}
</style>
<circle class="st0" cx="35" cy="35" r="35"/>
<path class="st1" d="M24.8,17.5c0.8,0,1.5-0.7,1.5-1.5v-5.8c0-0.8-0.7-1.5-1.5-1.5s-1.5,0.7-1.5,1.5V16C23.3,16.8,24,17.5,24.8,17.5
	z"/>
<path class="st1" d="M45.2,17.5c0.8,0,1.5-0.7,1.5-1.5v-5.8c0-0.8-0.7-1.5-1.5-1.5s-1.5,0.7-1.5,1.5V16
	C43.8,16.8,44.4,17.5,45.2,17.5z"/>
<rect x="21.9" y="26.2" class="st1" width="5.8" height="5.8"/>
<rect x="21.9" y="35" class="st1" width="5.8" height="5.8"/>
<rect x="21.9" y="43.8" class="st1" width="5.8" height="5.8"/>
<rect x="32.1" y="26.2" class="st1" width="5.8" height="5.8"/>
<rect x="32.1" y="35" class="st1" width="5.8" height="5.8"/>
<rect x="32.1" y="43.8" class="st1" width="5.8" height="5.8"/>
<rect x="42.3" y="26.2" class="st1" width="5.8" height="5.8"/>
<rect x="42.3" y="35" class="st1" width="5.8" height="5.8"/>
<rect x="42.3" y="43.8" class="st1" width="5.8" height="5.8"/>
<path class="st1" d="M54,21.9V54H16V21.9h-2.9V54c0,1.6,1.3,2.9,2.9,2.9h38c1.6,0,2.9-1.3,2.9-2.9V21.9H54z"/>
<path class="st2" d="M54,13.1h-5.8V16c0,1.6-1.3,2.9-2.9,2.9c-1.6,0-2.9-1.3-2.9-2.9v-2.9H27.7V16c0,1.6-1.3,2.9-2.9,2.9
	s-2.9-1.3-2.9-2.9v-2.9H16c-1.6,0-2.9,1.3-2.9,2.9v5.8h43.8V16C56.9,14.4,55.6,13.1,54,13.1z"/>
</svg>
