<?xml version="1.0" encoding="utf-8"?>
<!-- Generator: Adobe Illustrator 24.1.2, SVG Export Plug-In . SVG Version: 6.00 Build 0)  -->
<svg version="1.1" id="Ebene_1" xmlns="http://www.w3.org/2000/svg" xmlns:xlink="http://www.w3.org/1999/xlink" x="0px" y="0px"
	 width="70px" height="70px" viewBox="0 0 70 70" style="enable-background:new 0 0 70 70;" xml:space="preserve">
<style type="text/css">
	.st0{fill:#002677;}
	.st1{fill:#FFFFFF;}
	.st2{fill:#00BED5;}
</style>
<circle class="st0" cx="35" cy="35" r="35"/>
<path class="st1" d="M49.6,20.4c-1.6,0-2.9,1.3-2.9,2.9V32h-1.5V14.6c0-1.6-1.3-2.9-2.9-2.9s-2.9,1.3-2.9,2.9v17.5h-1.5V10.2
	c0-1.6-1.3-2.9-2.9-2.9s-2.9,1.3-2.9,2.9v21.9h-1.5V14.6c0-1.6-1.3-2.9-2.9-2.9s-2.9,1.3-2.9,2.9v26.2l-1.5,0.5V30.6
	c0-1.6-1.3-2.9-2.9-2.9s-2.9,1.3-2.9,2.9v14.6c0,9.7,7.8,17.5,17.5,17.5s17.5-7.8,17.5-17.5V23.3C52.5,21.7,51.2,20.4,49.6,20.4z"/>
<path class="st2" d="M44.9,37L44.9,37c-2.4-2.4-6.2-2.4-8.6,0l0,0L35,38.3L33.7,37c-2.4-2.4-6.2-2.4-8.6,0l0,0l0,0
	c-2.4,2.4-2.4,6.2,0,8.6l0,0l9.9,9.9l0,0l0,0l9.9-9.9C47.1,43.2,46.9,39.4,44.9,37z"/>
</svg>
