<?xml version="1.0" encoding="utf-8"?>
<!-- Generator: Adobe Illustrator 24.1.2, SVG Export Plug-In . SVG Version: 6.00 Build 0)  -->
<svg version="1.1" id="Ebene_1" xmlns="http://www.w3.org/2000/svg" xmlns:xlink="http://www.w3.org/1999/xlink" x="0px" y="0px"
	 width="70px" height="70px" viewBox="0 0 70 70" style="enable-background:new 0 0 70 70;" xml:space="preserve">
<style type="text/css">
	.st0{fill:#002677;}
	.st1{fill:none;}
</style>
<path class="st0" d="M49.6,20.4c-1.6,0-2.9,1.3-2.9,2.9V32h-1.5V14.6c0-1.6-1.3-2.9-2.9-2.9s-2.9,1.3-2.9,2.9v17.5h-1.5V10.2
	c0-1.6-1.3-2.9-2.9-2.9s-2.9,1.3-2.9,2.9v21.9h-1.5V14.6c0-1.6-1.3-2.9-2.9-2.9s-2.9,1.3-2.9,2.9v22.8c0.1-0.1,0.2-0.3,0.3-0.4
	c2.4-2.4,6.2-2.4,8.6,0l1.3,1.3l1.3-1.3c2.4-2.4,6.2-2.4,8.6,0c2.4,2.4,2.4,6.2,0,8.5L35,55.4l0,0l0,0l-9.9-9.9
	c-1.2-1.2-1.8-2.8-1.8-4.4l0,0V30.6c0-1.6-1.3-2.9-2.9-2.9s-2.9,1.3-2.9,2.9v14.6c0,9.7,7.8,17.5,17.5,17.5s17.5-7.8,17.5-17.5V23.3
	C52.5,21.7,51.2,20.4,49.6,20.4z"/>
<circle class="st1" cx="35" cy="35" r="35"/>
</svg>
