<?xml version="1.0" encoding="utf-8"?>
<!-- Generator: Adobe Illustrator 24.1.2, SVG Export Plug-In . SVG Version: 6.00 Build 0)  -->
<svg version="1.1" id="Ebene_1" xmlns="http://www.w3.org/2000/svg" xmlns:xlink="http://www.w3.org/1999/xlink" x="0px" y="0px"
	 width="70px" height="70px" viewBox="0 0 70 70" style="enable-background:new 0 0 70 70;" xml:space="preserve">
<style type="text/css">
	.st0{fill:#002677;}
</style>
<path class="st0" d="M35,0C15.7,0,0,15.7,0,35s15.7,35,35,35s35-15.7,35-35S54.3,0,35,0z M52.5,45.2c0,9.7-7.8,17.5-17.5,17.5
	s-17.5-7.8-17.5-17.5V30.6c0-1.6,1.3-2.9,2.9-2.9s2.9,1.3,2.9,2.9v10.7l0,0c0,1.6,0.7,3.1,1.8,4.2l9.9,9.9l0,0l0,0l9.9-9.9
	c2.4-2.4,2.4-6.2,0-8.6c-2.4-2.4-6.2-2.4-8.6,0L35,38.3L33.7,37c-2.4-2.4-6.2-2.4-8.6,0c-0.1,0.1-0.2,0.3-0.3,0.4V14.6
	c0-1.6,1.3-2.9,2.9-2.9s2.9,1.3,2.9,2.9v17.5h1.5V10.2c0-1.6,1.3-2.9,2.9-2.9s2.9,1.3,2.9,2.9v21.9h1.5V14.6c0-1.6,1.3-2.9,2.9-2.9
	s2.9,1.3,2.9,2.9v17.5h1.5v-8.7c0-1.6,1.3-2.9,2.9-2.9s2.9,1.3,2.9,2.9L52.5,45.2z"/>
</svg>
