<?xml version="1.0" encoding="utf-8"?>
<!-- Generator: Adobe Illustrator 24.1.2, SVG Export Plug-In . SVG Version: 6.00 Build 0)  -->
<svg version="1.1" id="Ebene_1" xmlns="http://www.w3.org/2000/svg" xmlns:xlink="http://www.w3.org/1999/xlink" x="0px" y="0px"
	 width="70px" height="70px" viewBox="0 0 70 70" style="enable-background:new 0 0 70 70;" xml:space="preserve">
<style type="text/css">
	.st0{fill:#002677;}
</style>
<path class="st0" d="M45.2,19H24.8v-1.5c0-0.5,0.1-1,0.3-1.4h-4.6V54h29.2V16.1h-4.6c0.2,0.5,0.3,0.9,0.3,1.4L45.2,19z M32.4,43.5
	l-7.3-7.3l3.1-3.1l4.2,4.2l8.4-8.4H47L32.4,43.5z"/>
<path class="st0" d="M35,0C15.7,0,0,15.7,0,35s15.7,35,35,35s35-15.7,35-35S54.3,0,35,0z M52.5,56.9h-35V13.2h11.4h0.5
	c0.8-3.1,4-5,7.1-4.2c2.1,0.5,3.7,2.1,4.2,4.2c0,0,0.4,0,0.5,0h11.4L52.5,56.9L52.5,56.9z"/>
</svg>
