<?xml version="1.0" encoding="utf-8"?>
<!-- Generator: Adobe Illustrator 24.1.2, SVG Export Plug-In . SVG Version: 6.00 Build 0)  -->
<svg version="1.1" id="Ebene_1" xmlns="http://www.w3.org/2000/svg" xmlns:xlink="http://www.w3.org/1999/xlink" x="0px" y="0px"
	 width="70px" height="70px" viewBox="0 0 70 70" style="enable-background:new 0 0 70 70;" xml:space="preserve">
<style type="text/css">
	.st0{fill:#FFFFFF;}
	.st1{fill:#002677;}
	.st2{fill:#00BED5;}
</style>
<circle class="st0" cx="35" cy="35" r="35"/>
<path class="st1" d="M41.1,13.2c-0.1,0-0.5,0-0.5,0c-0.8-3.1-4-5-7.1-4.2c-2.1,0.5-3.7,2.1-4.2,4.2c0,0-0.4,0-0.5,0H17.5v43.7h35
	V13.2H41.1z M49.6,53.9H20.4V16.1H25c-0.2,0.5-0.3,0.9-0.3,1.4V19h20.4v-1.5c0-0.5-0.1-1-0.3-1.4h4.6v37.8H49.6z"/>
<polygon class="st2" points="40.9,28.8 32.4,37.3 28.2,33 25.1,36.1 32.4,43.5 47.1,28.8 "/>
</svg>
