<?xml version="1.0" encoding="utf-8"?>
<!-- Generator: Adobe Illustrator 24.1.2, SVG Export Plug-In . SVG Version: 6.00 Build 0)  -->
<svg version="1.1" id="Ebene_1" xmlns="http://www.w3.org/2000/svg" xmlns:xlink="http://www.w3.org/1999/xlink" x="0px" y="0px"
	 width="70px" height="70px" viewBox="0 0 70 70" style="enable-background:new 0 0 70 70;" xml:space="preserve">
<style type="text/css">
	.st0{fill:#002677;}
	.st1{fill:none;}
</style>
<g>
	<g>
		<polygon class="st0" points="58.4,36.4 58.4,46.5 62.7,41.5 		"/>
		<polygon class="st0" points="14.6,46.6 14.6,36.5 10.2,41.5 		"/>
		<path class="st0" d="M50.3,36.4h-0.7v-2.9h-2.9V32h0.7c2.8,0,5.1-2.3,5.1-5.1s-2.3-5.1-5.1-5.1h-0.7v-4.4h0.7
			c2.8,0,5.1-2.3,5.1-5.1s-2.3-5.1-5.1-5.1h-0.7V4.3H21.9v2.9h-0.7c-2.8,0-5.1,2.3-5.1,5.1s2.3,5.1,5.1,5.1h0.7v4.4h-0.7
			c-2.8,0-5.1,2.3-5.1,5.1s2.3,5.1,5.1,5.1h0.7v2.9h2.9v1.5h-0.7c-2.8,0-5.1,2.3-5.1,5.1s2.3,5.1,5.1,5.1h0.7v1.5h-4.4V51h-0.7
			c-2.8,0-5.1,2.3-5.1,5.1s2.3,5.1,5.1,5.1h0.7v2.9h24.8v-2.9H46c2.8,0,5.1-2.3,5.1-5.1S48.8,51,46,51h-0.7v-1.5h4.4v-2.9h0.7
			c2.8,0,5.1-2.3,5.1-5.1S53.2,36.4,50.3,36.4z M21.2,14.5c-1.2,0-2.2-1-2.2-2.2s1-2.2,2.2-2.2h3.6V7.2h19v2.9h3.6
			c1.2,0,2.2,1,2.2,2.2s-1,2.2-2.2,2.2h-3.6v2.9h-19v-2.9H21.2z M21.2,29.1c-1.2,0-2.2-1-2.2-2.2s1-2.2,2.2-2.2h3.6v-2.9h19v2.9h3.6
			c1.2,0,2.2,1,2.2,2.2s-1,2.2-2.2,2.2h-3.6V32h-19v-2.9H21.2z M46,53.9c1.2,0,2.2,1,2.2,2.2s-1,2.2-2.2,2.2h-3.6v2.9h-19v-2.9h-3.6
			c-1.2,0-2.2-1-2.2-2.2s1-2.2,2.2-2.2l0,0h3.6V51h19v2.9H46z M50.3,43.7h-3.6v2.9h-19v-2.9h-3.6c-1.2,0-2.2-1-2.2-2.2
			s1-2.2,2.2-2.2h3.6v-2.9h19v2.9h3.6c1.2,0,2.2,1,2.2,2.2S51.6,43.7,50.3,43.7z"/>
		<polygon class="st0" points="27.7,8.7 26.3,8.7 26.3,16.2 27.7,15.8 		"/>
		<polygon class="st0" points="27.7,23.1 26.3,23.1 26.3,30.6 27.7,30.2 		"/>
		<polygon class="st0" points="29.2,45.4 30.7,45 30.7,37.9 29.2,37.9 		"/>
		<polygon class="st0" points="24.8,60 26.2,59.7 26.2,52.5 24.8,52.5 		"/>
	</g>
	<circle class="st1" cx="35" cy="35" r="35"/>
</g>
</svg>
