<?xml version="1.0" encoding="utf-8"?>
<!-- Generator: Adobe Illustrator 24.1.2, SVG Export Plug-In . SVG Version: 6.00 Build 0)  -->
<svg version="1.1" id="Ebene_1" xmlns="http://www.w3.org/2000/svg" xmlns:xlink="http://www.w3.org/1999/xlink" x="0px" y="0px"
	 width="70px" height="70px" viewBox="0 0 70 70" style="enable-background:new 0 0 70 70;" xml:space="preserve">
<style type="text/css">
	.st0{fill:#002677;}
</style>
<path class="st0" d="M35,0C15.7,0,0,15.7,0,35s15.7,35,35,35s35-15.7,35-35S54.3,0,35,0z M21.2,9.4h2.9V6.5h20.4v2.9h2.9
	c1.6,0,2.9,1.3,2.9,2.9s-1.3,2.9-2.9,2.9h-2.9v2.9H24.1v-2.9h-2.9c-1.6,0-2.9-1.3-2.9-2.9S19.6,9.4,21.2,9.4z M21.2,24h2.9v-2.9
	h20.4V24h2.9c1.6,0,2.9,1.3,2.9,2.9s-1.3,2.9-2.9,2.9h-2.9v2.9H24.1v-2.9h-2.9c-1.6,0-2.9-1.3-2.9-2.9S19.6,24,21.2,24z M14.6,46.6
	l-4.4-5.1l4.4-5.1V46.6z M46,59h-2.9v2.9H22.6V59h-2.9c-1.6,0-2.9-1.3-2.9-2.9s1.3-2.9,2.9-2.9h2.9v-2.9H43v2.9h3
	c1.6,0,2.9,1.3,2.9,2.9S47.6,59,46,59z M50.3,44.4h-2.9v2.9H27v-2.9h-2.9c-1.6,0-2.9-1.3-2.9-2.9s1.3-2.9,2.9-2.9H27v-2.9h20.4v2.9
	h2.9c1.6,0,2.9,1.3,2.9,2.9S52,44.4,50.3,44.4z M58.4,46.5V36.4l4.4,5.1L58.4,46.5z"/>
<polygon class="st0" points="27.7,8.8 26.3,8.8 26.3,16.2 27.7,15.9 "/>
<polygon class="st0" points="27.7,23.1 26.3,23.1 26.3,30.6 27.7,30.3 "/>
<polygon class="st0" points="29.2,45.4 30.7,45.1 30.7,37.9 29.2,37.9 "/>
<polygon class="st0" points="24.8,60.1 26.2,59.7 26.2,52.6 24.8,52.6 "/>
</svg>
