<?xml version="1.0" encoding="utf-8"?>
<!-- Generator: Adobe Illustrator 24.1.2, SVG Export Plug-In . SVG Version: 6.00 Build 0)  -->
<svg version="1.1" id="Ebene_1" xmlns="http://www.w3.org/2000/svg" xmlns:xlink="http://www.w3.org/1999/xlink" x="0px" y="0px"
	 width="70px" height="70px" viewBox="0 0 70 70" style="enable-background:new 0 0 70 70;" xml:space="preserve">
<style type="text/css">
	.st0{fill:#002677;}
	.st1{fill:#00BED5;}
	.st2{fill:#FFFFFF;}
</style>
<g>
	<circle class="st0" cx="35" cy="35" r="35"/>
	<g>
		<polygon class="st1" points="58.4,36.4 58.4,46.5 62.7,41.5 		"/>
		<polygon class="st1" points="14.6,46.6 14.6,36.5 10.2,41.5 		"/>
	</g>
	<g>
		<path class="st2" d="M21.2,15.3h2.9v2.9h20.4v-2.9h2.9c1.6,0,2.9-1.3,2.9-2.9s-1.3-3-2.9-3h-2.9V6.5H24.1v2.9h-2.9
			c-1.6,0-2.9,1.3-2.9,2.9S19.6,15.3,21.2,15.3z"/>
		<path class="st2" d="M21.2,29.8h2.9v2.9h20.4v-2.9h2.9c1.6,0,2.9-1.3,2.9-2.9S49,24,47.4,24h-2.9v-2.9H24.1V24h-2.9
			c-1.6,0-2.9,1.3-2.9,2.9S19.6,29.8,21.2,29.8z"/>
		<path class="st2" d="M50.3,38.6h-2.9v-2.9H27v2.9h-2.9c-1.6,0-2.9,1.3-2.9,2.9s1.3,2.9,2.9,2.9H27v2.9h20.4v-2.9h2.9
			c1.6,0,2.9-1.3,2.9-2.9S52,38.6,50.3,38.6z"/>
		<path class="st2" d="M46,53.2h-2.9v-2.9H22.6v2.9h-2.9c-1.6,0-2.9,1.3-2.9,2.9s1.3,2.9,2.9,2.9h2.9v2.9H43V59h3
			c1.6,0,2.9-1.3,2.9-2.9S47.6,53.2,46,53.2z"/>
	</g>
	<g>
		<polygon class="st0" points="27.7,8.8 26.3,8.8 26.3,16.2 27.7,15.9 		"/>
		<polygon class="st0" points="27.7,23.1 26.3,23.1 26.3,30.6 27.7,30.3 		"/>
		<polygon class="st0" points="29.2,45.4 30.7,45.1 30.7,37.9 29.2,37.9 		"/>
		<polygon class="st0" points="24.8,60.1 26.2,59.7 26.2,52.6 24.8,52.6 		"/>
	</g>
</g>
</svg>
