<?xml version="1.0" encoding="utf-8"?>
<!-- Generator: Adobe Illustrator 24.1.2, SVG Export Plug-In . SVG Version: 6.00 Build 0)  -->
<svg version="1.1" id="Layer_1" xmlns="http://www.w3.org/2000/svg" xmlns:xlink="http://www.w3.org/1999/xlink" x="0px" y="0px"
	 width="70px" height="70px" viewBox="0 0 70 70" style="enable-background:new 0 0 70 70;" xml:space="preserve">
<style type="text/css">
	.st0{fill:none;}
	.st1{fill:#002677;}
</style>
<circle class="st0" cx="35" cy="35" r="35"/>
<path class="st1" d="M54,54V14.6h-8.8v16H24.8v-16H16V54c-1.6,0-2.9,1.3-2.9,2.9h43.8C56.9,55.3,55.6,54,54,54z M33.5,54h-7.3V39.4
	h7.3V54z M43.8,54h-7.3V39.4h7.3V54z M27,12.4v16h16v-16H27z M39.5,22.3H37v3.2h-3.9v-3.2h-3.2v-3.9h3.2v-3.2H37v3.2h3.9L39.5,22.3z
	"/>
</svg>
