<?xml version="1.0" encoding="utf-8"?>
<!-- Generator: Adobe Illustrator 24.1.2, SVG Export Plug-In . SVG Version: 6.00 Build 0)  -->
<svg version="1.1" id="Layer_1" xmlns="http://www.w3.org/2000/svg" xmlns:xlink="http://www.w3.org/1999/xlink" x="0px" y="0px"
	 width="70px" height="70px" viewBox="0 0 70 70" style="enable-background:new 0 0 70 70;" xml:space="preserve">
<style type="text/css">
	.st0{fill:#002677;}
	.st1{fill:#FFFFFF;}
	.st2{fill:#00BED5;}
</style>
<circle class="st0" cx="35" cy="35" r="35"/>
<path class="st1" d="M37,18.5h3.9l-1.3,3.9H37v3.2h-3.9v-3.2h-3.2v-3.9h3.2v-3.2H37V18.5z M56.9,56.9H13.1c0-1.6,1.3-2.9,2.9-2.9
	V14.6h8.8v-4.4h20.4v4.4H54V54C55.6,54,56.9,55.3,56.9,56.9z M27,28.4h16v-16H27V28.4z M33.5,39.4h-7.3V54h7.3V39.4z M43.8,39.4
	h-7.3V54h7.3V39.4z"/>
<rect x="26.2" y="39.4" class="st2" width="7.3" height="14.6"/>
<rect x="36.5" y="39.4" class="st2" width="7.3" height="14.6"/>
</svg>
