<?xml version="1.0" encoding="utf-8"?>
<!-- Generator: Adobe Illustrator 24.1.2, SVG Export Plug-In . SVG Version: 6.00 Build 0)  -->
<svg version="1.1" id="Layer_1" xmlns="http://www.w3.org/2000/svg" xmlns:xlink="http://www.w3.org/1999/xlink" x="0px" y="0px"
	 width="70px" height="70px" viewBox="0 0 70 70" style="enable-background:new 0 0 70 70;" xml:space="preserve">
<style type="text/css">
	.st0{fill:#002677;}
</style>
<rect x="26.2" y="39.4" class="st0" width="7.3" height="14.6"/>
<rect x="36.5" y="39.4" class="st0" width="7.3" height="14.6"/>
<path class="st0" d="M43,12.4H27v16h16V12.4z M39.5,22.3H37v3.2h-3.9v-3.2h-3.2v-3.9h3.2v-3.2H37v3.2h3.9L39.5,22.3z"/>
<path class="st0" d="M35,0C15.7,0,0,15.7,0,35s15.7,35,35,35s35-15.7,35-35S54.3,0,35,0z M13.1,56.9c0-1.6,1.3-2.9,2.9-2.9V14.6h8.8
	v-4.4h20.4v4.4H54V54c1.6,0,2.9,1.3,2.9,2.9H13.1z"/>
</svg>
