<?xml version="1.0" encoding="utf-8"?>
<!-- Generator: Adobe Illustrator 24.1.2, SVG Export Plug-In . SVG Version: 6.00 Build 0)  -->
<svg version="1.1" id="Ebene_1" xmlns="http://www.w3.org/2000/svg" xmlns:xlink="http://www.w3.org/1999/xlink" x="0px" y="0px"
	 width="70px" height="70px" viewBox="0 0 70 70" style="enable-background:new 0 0 70 70;" xml:space="preserve">
<style type="text/css">
	.st0{fill:#002677;}
</style>
<path class="st0" d="M39,34.8c-1-0.7-2.2-1.2-3.4-1.4V30c0.9,0.1,1.6,0.9,1.6,1.8h2.7c-0.1-2.3-2-4.1-4.3-4.1v-1.5h-1.1v1.5
	c-1.1,0-2.1,0.4-3,1.1c-1,0.7-1.5,1.9-1.4,3.1c0,2.1,1.1,3.2,3.7,3.9c0.1,0,0.3,0.1,0.3,0.1c0.1,0,0.2,0.1,0.3,0.1h0.1v3.9
	c-1.2-0.2-2.1-1.3-2.1-2.5v-0.1h-2.7c0,2.6,2.1,4.8,4.7,4.8h0.1v1.6h1.1v-1.6c1.4,0,2.7-0.6,3.7-1.6c0.7-0.7,1.1-1.7,1.1-2.7
	C40.4,36.7,39.9,35.5,39,34.8z M34.4,33.1c-1.3-0.3-1.7-0.7-1.7-1.5c0-0.9,0.7-1.6,1.6-1.6c0.1,0,0.1,0,0.2,0L34.4,33.1L34.4,33.1z
	 M35.6,39.9v-3.6c1.6,0.5,2.1,0.8,2.1,1.7C37.6,39,36.9,39.7,35.6,39.9z"/>
<path class="st0" d="M35,0C15.7,0,0,15.7,0,35s15.7,35,35,35s35-15.7,35-35S54.3,0,35,0z M8.8,21.9h6.6c0,3.6-2.9,6.6-6.6,6.6
	C8.8,28.5,8.8,21.9,8.8,21.9z M8.8,48.1v-6.6c3.6,0,6.6,2.9,6.6,6.6H8.8z M61.2,48.1h-6.6c0-3.6,2.9-6.6,6.6-6.6V48.1z M61.2,40.1
	c-4.4,0-8,3.6-8,8H16.8c0-4.4-3.6-8-8-8V29.9c4.4,0,8-3.6,8-8h36.5c0,4.4,3.6,8,8,8L61.2,40.1L61.2,40.1z M54.7,21.9h6.6v6.6
	C57.6,28.4,54.7,25.5,54.7,21.9z"/>
</svg>
