<?xml version="1.0" encoding="utf-8"?>
<!-- Generator: Adobe Illustrator 24.1.2, SVG Export Plug-In . SVG Version: 6.00 Build 0)  -->
<svg version="1.1" id="Ebene_1" xmlns="http://www.w3.org/2000/svg" xmlns:xlink="http://www.w3.org/1999/xlink" x="0px" y="0px"
	 width="70px" height="70px" viewBox="0 0 70 70" style="enable-background:new 0 0 70 70;" xml:space="preserve">
<style type="text/css">
	.st0{fill:#002677;}
	.st1{fill:#FFFFFF;}
	.st2{fill:#00BED5;}
</style>
<circle class="st0" cx="35" cy="35" r="35"/>
<path class="st1" d="M35.6,36.3v3.6c1.4-0.2,2.1-0.9,2.1-1.9C37.6,37.1,37.2,36.7,35.6,36.3z"/>
<path class="st1" d="M32.7,31.6c0,0.8,0.4,1.2,1.7,1.5V30c-0.9-0.1-1.6,0.6-1.7,1.4C32.7,31.5,32.7,31.5,32.7,31.6z"/>
<path class="st1" d="M8.8,21.9v26.2h52.5V21.9H8.8z M39.3,40.6c-1,1-2.3,1.6-3.7,1.6v1.6h-1.1v-1.6c-2.6,0-4.8-2.1-4.8-4.7v-0.1h2.7
	v0.1c-0.1,1.2,0.8,2.3,2.1,2.5v-4h-0.1c-0.1,0-0.2,0-0.3-0.1c-0.1,0-0.2,0-0.3-0.1C31.1,35.1,30,34,30,31.9
	c-0.1-1.2,0.5-2.4,1.4-3.1s1.9-1,3-1.1v-1.5h1.1v1.5c2.3,0,4.2,1.8,4.3,4.1h-2.7c0-0.9-0.7-1.8-1.6-1.8v3.4c1.2,0.2,2.4,0.7,3.4,1.4
	c0.9,0.7,1.4,1.9,1.4,3.1C40.4,38.9,40,39.8,39.3,40.6z"/>
<path class="st2" d="M8.8,40.8v7.3H16C16,44.1,12.8,40.8,8.8,40.8z"/>
<path class="st2" d="M8.8,29.2c4,0,7.3-3.3,7.3-7.3H8.8V29.2z"/>
<path class="st2" d="M54,21.9c0,4,3.3,7.3,7.3,7.3v-7.3C61.3,21.9,54,21.9,54,21.9z"/>
<path class="st2" d="M54,48.1h7.3v-7.3C57.2,40.8,54,44.1,54,48.1z"/>
</svg>
