<?xml version="1.0" encoding="utf-8"?>
<!-- Generator: Adobe Illustrator 24.1.2, SVG Export Plug-In . SVG Version: 6.00 Build 0)  -->
<svg version="1.1" id="Ebene_1" xmlns="http://www.w3.org/2000/svg" xmlns:xlink="http://www.w3.org/1999/xlink" x="0px" y="0px"
	 width="70px" height="70px" viewBox="0 0 70 70" style="enable-background:new 0 0 70 70;" xml:space="preserve">
<style type="text/css">
	.st0{fill:#FFFFFF;}
	.st1{fill:#002677;}
	.st2{fill:#00BED5;}
</style>
<circle class="st0" cx="35" cy="35" r="35"/>
<path class="st1" d="M53.9,23.9c-0.7-5.1-4.6-9.2-9.8-10c-0.6-0.1-1.2-0.1-1.8-0.1c-1.9,0-3.7,0.4-5.3,1.3c-1.2,0.6-2.7,0.6-3.9,0
	c-1.6-0.8-3.5-1.3-5.3-1.3c-0.6,0-1.2,0-1.8,0.1c-6.4,1-10.7,7-9.7,13.3c0.2,1.5,0.8,3,1.6,4.4c1.6,2.5,2.6,5.4,2.6,8.5v5.8
	c0,3.3,1.1,6.4,3.1,9c0.7,1,1.9,1.5,3.1,1.5c2.2,0,4.1-1.8,4.1-4l0,0v-1.8c-0.1-2.4,1.7-4.5,4.1-4.6c0.1,0,0.2,0,0.3,0
	c2.4,0,4.4,2,4.4,4.4l0,0v2.1c0,2.2,1.8,4,4,4l0,0c1.2,0,2.3-0.6,3.1-1.5c2-2.6,3.1-5.7,3.1-9v-6c0.1-3,1-5.9,2.6-8.5
	C53.6,29.3,54.2,26.5,53.9,23.9z M49.7,30c-1.9,3-3,6.4-3.1,10v5.8c0,2.6-0.9,5.1-2.5,7.2c-0.2,0.2-0.5,0.4-0.8,0.4
	c-0.6,0-1.1-0.5-1.2-1.1l0,0v-2.1c0-4-3.3-7.3-7.3-7.3c-0.4,0-0.9,0-1.3,0.1c-3.5,0.7-6.1,3.8-6,7.4v1.8c0,0.6-0.5,1.1-1.1,1.1l0,0
	c-0.3,0-0.6-0.1-0.8-0.4c-1.6-2-2.5-4.6-2.5-7.2V40C23,36.4,22,33,20,30c-1.1-1.7-1.5-3.7-1.2-5.7c0.5-3.8,3.5-6.9,7.3-7.5
	c0.5-0.1,0.9-0.1,1.4-0.1c1.4,0,2.8,0.3,4,1c2.1,1.1,4.5,1.1,6.6,0c1.2-0.6,2.6-1,4-1c0.5,0,0.9,0,1.4,0.1c3.8,0.6,6.8,3.7,7.3,7.5
	C51.2,26.2,50.8,28.3,49.7,30z"/>
<path class="st2" d="M27.6,21.7c0.4,0,0.7,0.1,1.1,0.2l1.7-1.7c-0.8-0.5-1.8-0.7-2.7-0.7c-3.2,0-5.8,2.6-5.8,5.8h2.2
	C24.1,23.3,25.7,21.7,27.6,21.7z"/>
</svg>
