<?xml version="1.0" encoding="utf-8"?>
<!-- Generator: Adobe Illustrator 24.1.2, SVG Export Plug-In . SVG Version: 6.00 Build 0)  -->
<svg version="1.1" id="Layer_1" xmlns="http://www.w3.org/2000/svg" xmlns:xlink="http://www.w3.org/1999/xlink" x="0px" y="0px"
	 width="70px" height="70px" viewBox="0 0 70 70" style="enable-background:new 0 0 70 70;" xml:space="preserve">
<style type="text/css">
	.st0{fill:none;}
	.st1{fill:#002677;}
</style>
<circle class="st0" cx="35" cy="35" r="35"/>
<path class="st1" d="M57.6,39.4H12.4v11.4c7.1,3.1,14.8,4.7,22.6,4.7s15.5-1.6,22.6-4.7V39.4z M50.3,40.8h5.8v3.6
	c0,1.6-1.3,2.9-2.9,2.9c-1.6,0-2.9-1.3-2.9-2.9C50.3,44.4,50.3,40.8,50.3,40.8z M43,40.8h5.8v3.6c0,1.6-1.3,2.9-2.9,2.9
	c-1.6,0-2.9-1.3-2.9-2.9C43,44.4,43,40.8,43,40.8z M35.7,40.8h5.8v3.6c0,1.6-1.3,2.9-2.9,2.9s-2.9-1.3-2.9-2.9
	C35.7,44.4,35.7,40.8,35.7,40.8z M28.4,40.8h5.8v3.6c0,1.6-1.3,2.9-2.9,2.9s-2.9-1.3-2.9-2.9C28.4,44.4,28.4,40.8,28.4,40.8z
	 M21.1,40.8H27v3.6c0,1.6-1.3,2.9-2.9,2.9s-2.9-1.3-2.9-2.9v-3.6H21.1z M13.8,40.8h5.8v3.6c0,1.6-1.3,2.9-2.9,2.9s-2.9-1.3-2.9-2.9
	C13.8,44.4,13.8,40.8,13.8,40.8z"/>
<path class="st1" d="M57.6,18.2c-14.3-6.8-30.9-6.8-45.2,0v15.3h45.2V18.2z M22.6,32.1h-8.7V27c0-2.4,2-4.4,4.4-4.4s4.4,2,4.4,4.4
	v5.1H22.6z M34.3,32.1H24v-5.8c0-2.8,2.3-5.1,5.1-5.1s5.1,2.3,5.1,5.1L34.3,32.1L34.3,32.1z M45.9,27v5.1H35.7v-5.8
	c0-2.8,2.3-5.1,5.1-5.1s5.1,2.3,5.1,5.1C45.9,26.3,45.9,27,45.9,27z M56.1,32.1h-8.8V27c0-2.4,2-4.4,4.4-4.4s4.4,2,4.4,4.4
	C56.1,27,56.1,32.1,56.1,32.1z"/>
</svg>
