<?xml version="1.0" encoding="utf-8"?>
<!-- Generator: Adobe Illustrator 24.1.2, SVG Export Plug-In . SVG Version: 6.00 Build 0)  -->
<svg version="1.1" id="Ebene_1" xmlns="http://www.w3.org/2000/svg" xmlns:xlink="http://www.w3.org/1999/xlink" x="0px" y="0px"
	 width="70px" height="70px" viewBox="0 0 70 70" style="enable-background:new 0 0 70 70;" xml:space="preserve">
<style type="text/css">
	.st0{fill:#002677;}
	.st1{fill:#FFFFFF;}
	.st2{fill:#00BED5;}
</style>
<circle class="st0" cx="35" cy="35" r="35"/>
<path class="st1" d="M52.4,24.1c-0.6-4.5-4.1-8-8.5-8.8c-0.5-0.1-1.1-0.1-1.6-0.1c-1.6,0-3.2,0.4-4.7,1.1c-1.7,0.9-3.6,0.9-5.3,0
	c-1.4-0.7-3-1.1-4.7-1.1c-0.5,0-1.1,0-1.6,0.1c-4.5,0.7-7.9,4.3-8.5,8.8c-0.3,2.3,0.2,4.7,1.5,6.7c1.8,2.7,2.8,5.9,2.8,9.2v5.8
	c0,2.9,1,5.8,2.8,8.1c0.4,0.6,1.2,1,1.9,0.9c1.4,0,2.6-1.1,2.6-2.5l0,0v-1.8c-0.1-2.9,2-5.4,4.8-6c0.3-0.1,0.7-0.1,1-0.1
	c3.2,0,5.8,2.6,5.8,5.8v2.1c0,1.4,1.1,2.6,2.6,2.6l0,0c0.7,0,1.5-0.3,1.9-0.9c1.8-2.3,2.8-5.1,2.8-8.1V40c0.1-3.3,1-6.5,2.8-9.2
	C52.2,28.8,52.7,26.4,52.4,24.1z"/>
<path class="st2" d="M27.6,21.7c0.4,0,0.7,0.1,1.1,0.2l1.7-1.7c-0.8-0.5-1.8-0.7-2.7-0.7c-3.2,0-5.8,2.6-5.8,5.8h2.2
	C24.1,23.3,25.7,21.7,27.6,21.7z"/>
</svg>
