<?xml version="1.0" encoding="utf-8"?>
<!-- Generator: Adobe Illustrator 24.1.2, SVG Export Plug-In . SVG Version: 6.00 Build 0)  -->
<svg version="1.1" id="Layer_1" xmlns="http://www.w3.org/2000/svg" xmlns:xlink="http://www.w3.org/1999/xlink" x="0px" y="0px"
	 width="70px" height="70px" viewBox="0 0 70 70" style="enable-background:new 0 0 70 70;" xml:space="preserve">
<style type="text/css">
	.st0{fill:#002677;}
</style>
<path class="st0" d="M35,0C15.7,0,0,15.7,0,35s15.7,35,35,35s35-15.7,35-35S54.3,0,35,0z M35,55.4c-7.8,0-15.5-1.6-22.6-4.7v-6.2
	c0,2.4,2,4.3,4.5,4.3c1.4,0,2.8-0.8,3.6-2c0.8,1.2,2.2,2,3.6,2c1.5,0,2.8-0.7,3.6-2c1.3,2,4.1,2.6,6.1,1.2c0.5-0.3,0.9-0.7,1.2-1.2
	c0.8,1.2,2.2,2,3.6,2c1.5,0,2.8-0.7,3.6-2c1.3,2,4.1,2.6,6.1,1.2c0.5-0.3,0.9-0.7,1.2-1.2c0.8,1.2,2.2,2,3.6,2c2.4,0,4.4-2,4.4-4.4
	v6.3C50.5,53.8,42.8,55.4,35,55.4z M24,32.1v-5.8c0-2.8,2.3-5.1,5.1-5.1s5.1,2.3,5.1,5.1v5.8H24z M34.3,40.8v3.6
	c0,1.6-1.3,2.9-2.9,2.9s-2.9-1.3-2.9-2.9v-3.6H34.3z M27,40.8v3.6c0,1.6-1.3,2.9-2.9,2.9s-2.9-1.3-2.9-2.9v-3.6H27z M22.6,32.1h-8.7
	V27c0-2.4,2-4.4,4.4-4.4s4.4,2,4.4,4.4v5.1H22.6z M19.7,40.8v3.6c0,1.6-1.3,2.9-2.9,2.9s-2.9-1.3-2.9-2.9v-3.6H19.7z M47.4,32.1V27
	c0-2.4,2-4.4,4.4-4.4s4.4,2,4.4,4.4v5.1H47.4z M56.1,40.8v3.6c0,1.6-1.3,2.9-2.9,2.9s-2.9-1.3-2.9-2.9v-3.6H56.1z M48.8,40.8v3.6
	c0,1.6-1.3,2.9-2.9,2.9c-1.6,0-2.9-1.3-2.9-2.9v-3.6H48.8z M45.9,32.1H35.7v-5.8c0-2.8,2.3-5.1,5.1-5.1s5.1,2.3,5.1,5.1
	C45.9,26.3,45.9,32.1,45.9,32.1z M41.5,40.8v3.6c0,1.6-1.3,2.9-2.9,2.9c-1.6,0-2.9-1.3-2.9-2.9v-3.6H41.5z M57.6,27
	c0-3.2-2.6-5.8-5.8-5.8c-2,0-3.8,1-4.9,2.6c-1.4-3.3-5.2-4.9-8.6-3.5c-1.4,0.6-2.6,1.7-3.3,3c-1.7-3.2-5.6-4.5-8.9-2.8
	c-1.4,0.7-2.5,1.9-3,3.3c-1.8-2.7-5.4-3.4-8.1-1.6c-1.6,1.1-2.6,2.8-2.6,4.8v-8.7c14.3-6.8,30.9-6.8,45.2,0V27z"/>
</svg>
