<?xml version="1.0" encoding="utf-8"?>
<!-- Generator: Adobe Illustrator 24.1.2, SVG Export Plug-In . SVG Version: 6.00 Build 0)  -->
<svg version="1.1" id="Ebene_1" xmlns="http://www.w3.org/2000/svg" xmlns:xlink="http://www.w3.org/1999/xlink" x="0px" y="0px"
	 width="70px" height="70px" viewBox="0 0 70 70" style="enable-background:new 0 0 70 70;" xml:space="preserve">
<style type="text/css">
	.st0{fill:#002677;}
</style>
<path class="st0" d="M35,0C15.7,0,0,15.7,0,35s15.7,35,35,35s35-15.7,35-35S54.3,0,35,0z M51,30.8c-1.8,2.7-2.8,5.9-2.8,9.2v5.8
	c0,2.9-1,5.8-2.8,8.1c-0.4,0.6-1.2,1-1.9,0.9c-1.4,0-2.6-1.1-2.6-2.5l0,0v-2.1c0-3.2-2.6-5.8-5.8-5.8c-0.3,0-0.7,0-1,0.1
	c-2.8,0.6-4.9,3.1-4.8,6v1.8c0,1.4-1.1,2.6-2.6,2.6l0,0c-0.7,0-1.5-0.3-1.9-0.9C23,51.7,22,48.9,22,45.9V40c-0.1-3.3-1-6.5-2.8-9.2
	c-1.2-2-1.8-4.4-1.5-6.7c0.6-4.5,4.1-8,8.5-8.8c0.5-0.1,1.1-0.1,1.6-0.1c1.6,0,3.2,0.4,4.7,1.1c1.7,0.9,3.6,0.9,5.3,0
	c1.4-0.7,3-1.1,4.7-1.1c0.5,0,1.1,0,1.6,0.1c4.5,0.7,7.9,4.3,8.5,8.8C52.7,26.4,52.2,28.8,51,30.8z"/>
<path class="st0" d="M21.9,25.3h2.2c0-2,1.6-3.6,3.6-3.6c0.4,0,0.7,0.1,1.1,0.2l1.7-1.7c-0.8-0.5-1.8-0.7-2.7-0.7
	C24.4,19.5,21.9,22.1,21.9,25.3z"/>
</svg>
