<?xml version="1.0" encoding="utf-8"?>
<!-- Generator: Adobe Illustrator 24.1.2, SVG Export Plug-In . SVG Version: 6.00 Build 0)  -->
<svg version="1.1" id="Layer_1" xmlns="http://www.w3.org/2000/svg" xmlns:xlink="http://www.w3.org/1999/xlink" x="0px" y="0px"
	 width="70px" height="70px" viewBox="0 0 70 70" style="enable-background:new 0 0 70 70;" xml:space="preserve">
<style type="text/css">
	.st0{fill:#FFFFFF;}
	.st1{fill:#002677;}
	.st2{fill:#00BED5;}
</style>
<circle class="st0" cx="35" cy="35" r="35"/>
<path class="st0" d="M45.9,26.2c0-2.8-2.3-5.1-5.1-5.1s-5.1,2.3-5.1,5.1V32h10.2C45.9,32,45.9,26.2,45.9,26.2z"/>
<path class="st0" d="M22.6,27c0-2.4-2-4.4-4.4-4.4s-4.4,2-4.4,4.4v5.1h8.7V27H22.6z"/>
<path class="st0" d="M29.2,21.1c-2.8,0-5.1,2.3-5.1,5.1V32h10.2v-5.8C34.3,23.4,32,21.1,29.2,21.1z"/>
<path class="st0" d="M51.8,22.6c-2.4,0-4.4,2-4.4,4.4v5.1h8.8V27C56.1,24.6,54.2,22.6,51.8,22.6z"/>
<path class="st0" d="M28.4,44.5c0,1.6,1.3,2.9,2.9,2.9c1.6,0,2.9-1.3,2.9-2.9v-3.6h-5.8C28.4,40.9,28.4,44.5,28.4,44.5z"/>
<path class="st0" d="M35.7,44.5c0,1.6,1.3,2.9,2.9,2.9s2.9-1.3,2.9-2.9v-3.6h-5.8C35.7,40.9,35.7,44.5,35.7,44.5z"/>
<path class="st0" d="M50.3,44.5c0,1.6,1.3,2.9,2.9,2.9c1.6,0,2.9-1.3,2.9-2.9v-3.6h-5.8C50.3,40.9,50.3,44.5,50.3,44.5z"/>
<path class="st0" d="M43,44.5c0,1.6,1.3,2.9,2.9,2.9c1.6,0,2.9-1.3,2.9-2.9v-3.6H43V44.5z"/>
<path class="st0" d="M21.1,44.5c0,1.6,1.3,2.9,2.9,2.9s2.9-1.3,2.9-2.9v-3.6h-5.8C21.1,40.9,21.1,44.5,21.1,44.5z"/>
<path class="st0" d="M13.8,44.5c0,1.6,1.3,2.9,2.9,2.9s2.9-1.3,2.9-2.9v-3.6h-5.8V44.5z"/>
<path class="st1" d="M51.8,21.1c-2,0-3.8,1-4.9,2.6c-1.4-3.3-5.2-4.9-8.6-3.5c-1.4,0.6-2.6,1.7-3.3,3c-1.7-3.2-5.6-4.5-8.9-2.8
	c-1.4,0.7-2.5,1.9-3,3.3c-1.8-2.7-5.4-3.4-8.1-1.6c-1.6,1.1-2.6,2.8-2.6,4.8v6.7h45.2V27C57.6,23.8,55,21.1,51.8,21.1L51.8,21.1z
	 M22.6,32.1h-8.8V27c0-2.4,2-4.4,4.4-4.4s4.4,2,4.4,4.4V32.1z M34.3,32.1H24v-5.8c0-2.8,2.3-5.1,5.1-5.1s5.1,2.3,5.1,5.1L34.3,32.1
	L34.3,32.1z M45.9,32.1H35.7v-5.8c0-2.8,2.3-5.1,5.1-5.1s5.1,2.3,5.1,5.1C45.9,26.3,45.9,32.1,45.9,32.1z M56.1,32.1h-8.8V27
	c0-2.4,2-4.4,4.4-4.4s4.4,2,4.4,4.4C56.1,27,56.1,32.1,56.1,32.1z"/>
<path class="st1" d="M12.4,44.6c0,2.4,2,4.3,4.5,4.3c1.4,0,2.8-0.8,3.6-2c0.8,1.2,2.2,2,3.6,2c1.5,0,2.8-0.7,3.7-2
	c1.3,2,4.1,2.6,6.1,1.2c0.5-0.3,0.9-0.7,1.2-1.2c0.8,1.2,2.2,2,3.6,2c1.5,0,2.8-0.7,3.6-2c1.3,2,4.1,2.6,6.1,1.2
	c0.5-0.3,0.9-0.7,1.2-1.2c0.8,1.2,2.2,2,3.6,2c2.4,0,4.4-2,4.4-4.4v-5.1H12.4V44.6z M50.3,40.8h5.8v3.6c0,1.6-1.3,2.9-2.9,2.9
	s-2.9-1.3-2.9-2.9C50.3,44.4,50.3,40.8,50.3,40.8z M43,40.8h5.8v3.6c0,1.6-1.3,2.9-2.9,2.9c-1.6,0-2.9-1.3-2.9-2.9
	C43,44.4,43,40.8,43,40.8z M35.7,40.8h5.8v3.6c0,1.6-1.3,2.9-2.9,2.9c-1.6,0-2.9-1.3-2.9-2.9C35.7,44.4,35.7,40.8,35.7,40.8z
	 M28.4,40.8h5.8v3.6c0,1.6-1.3,2.9-2.9,2.9s-2.9-1.3-2.9-2.9C28.4,44.4,28.4,40.8,28.4,40.8z M21.1,40.8H27v3.6
	c0,1.6-1.3,2.9-2.9,2.9s-2.9-1.3-2.9-2.9v-3.6H21.1z M13.8,40.8h5.8v3.6c0,1.6-1.3,2.9-2.9,2.9s-2.9-1.3-2.9-2.9
	C13.8,44.4,13.8,40.8,13.8,40.8z"/>
<path class="st2" d="M53.2,48.9c-1.5,0-2.8-0.7-3.6-2c-1.3,2-4.1,2.6-6.1,1.2c-0.5-0.3-0.9-0.7-1.2-1.2c-0.8,1.2-2.2,2-3.6,2
	c-1.5,0-2.8-0.7-3.6-2c-1.3,2-4.1,2.6-6.1,1.2c-0.5-0.3-0.9-0.7-1.2-1.2c-0.8,1.2-2.2,2-3.6,2c-1.5,0-2.8-0.7-3.6-2
	c-1.3,2-4,2.6-6.1,1.2c-1.2-0.8-1.9-2.1-2-3.6v6.2c7.1,3.1,14.8,4.7,22.6,4.7s15.5-1.6,22.6-4.7v-6.3C57.6,46.9,55.6,48.9,53.2,48.9
	L53.2,48.9z"/>
<path class="st2" d="M18.2,21.1c2,0,3.8,1,4.9,2.6c1.4-3.4,5.2-5,8.6-3.6c1.4,0.6,2.6,1.7,3.3,3.1c1.7-3.2,5.6-4.5,8.8-2.8
	c1.4,0.7,2.5,1.9,3.1,3.3c1.8-2.7,5.4-3.4,8.1-1.7c1.6,1.1,2.6,2.9,2.6,4.9v-8.8c-14.3-6.8-30.9-6.8-45.2,0V27
	C12.4,23.8,15,21.2,18.2,21.1z"/>
</svg>
