<?xml version="1.0" encoding="utf-8"?>
<!-- Generator: Adobe Illustrator 24.1.2, SVG Export Plug-In . SVG Version: 6.00 Build 0)  -->
<svg version="1.1" id="Layer_1" xmlns="http://www.w3.org/2000/svg" xmlns:xlink="http://www.w3.org/1999/xlink" x="0px" y="0px"
	 width="70px" height="70px" viewBox="0 0 70 70" style="enable-background:new 0 0 70 70;" xml:space="preserve">
<style type="text/css">
	.st0{fill:#002677;}
	.st1{fill:#00BED5;}
	.st2{fill:#FFFFFF;}
</style>
<circle class="st0" cx="35" cy="35" r="35"/>
<path class="st1" d="M18.2,21.1c2,0,3.8,1,4.9,2.6c1.4-3.4,5.2-5,8.6-3.6c1.4,0.6,2.6,1.7,3.3,3.1c1.7-3.2,5.6-4.5,8.8-2.8
	c1.4,0.7,2.5,1.9,3.1,3.3c1.8-2.7,5.4-3.4,8.1-1.7c1.6,1.1,2.6,2.9,2.6,4.9v-8.8c-14.3-6.8-30.9-6.8-45.2,0v8.7
	C12.4,23.7,15,21.1,18.2,21.1z"/>
<path class="st1" d="M53.2,48.9c-1.5,0-2.8-0.7-3.6-2c-1.3,2-4.1,2.6-6.1,1.2c-0.5-0.3-0.9-0.7-1.2-1.2c-0.8,1.2-2.2,2-3.6,2
	c-1.5,0-2.8-0.7-3.6-2c-1.3,2-4.1,2.6-6.1,1.2c-0.5-0.3-0.9-0.7-1.2-1.2c-0.8,1.2-2.2,2-3.6,2c-1.5,0-2.8-0.7-3.6-2
	c-1.3,2-4,2.6-6.1,1.2c-1.2-0.8-1.9-2.1-2-3.6v6.2c7.1,3.1,14.8,4.7,22.6,4.7s15.5-1.6,22.6-4.7v-6.3C57.6,46.9,55.6,48.9,53.2,48.9
	L53.2,48.9z"/>
<path class="st2" d="M45.9,26.2c0-2.8-2.3-5.1-5.1-5.1s-5.1,2.3-5.1,5.1V32h10.2C45.9,32,45.9,26.2,45.9,26.2z"/>
<path class="st2" d="M22.6,27c0-2.4-2-4.4-4.4-4.4s-4.4,2-4.4,4.4v5.1h8.7V27H22.6z"/>
<path class="st2" d="M29.2,21.1c-2.8,0-5.1,2.3-5.1,5.1V32h10.2v-5.8C34.3,23.4,32,21.1,29.2,21.1z"/>
<path class="st2" d="M51.8,22.6c-2.4,0-4.4,2-4.4,4.4v5.1h8.8V27C56.1,24.6,54.2,22.6,51.8,22.6z"/>
<path class="st2" d="M28.4,44.5c0,1.6,1.3,2.9,2.9,2.9c1.6,0,2.9-1.3,2.9-2.9v-3.6h-5.8C28.4,40.9,28.4,44.5,28.4,44.5z"/>
<path class="st2" d="M35.7,44.5c0,1.6,1.3,2.9,2.9,2.9s2.9-1.3,2.9-2.9v-3.6h-5.8C35.7,40.9,35.7,44.5,35.7,44.5z"/>
<path class="st2" d="M50.3,44.5c0,1.6,1.3,2.9,2.9,2.9c1.6,0,2.9-1.3,2.9-2.9v-3.6h-5.8C50.3,40.9,50.3,44.5,50.3,44.5z"/>
<path class="st2" d="M43,44.5c0,1.6,1.3,2.9,2.9,2.9c1.6,0,2.9-1.3,2.9-2.9v-3.6H43V44.5z"/>
<path class="st2" d="M21.1,44.5c0,1.6,1.3,2.9,2.9,2.9s2.9-1.3,2.9-2.9v-3.6h-5.8C21.1,40.9,21.1,44.5,21.1,44.5z"/>
<path class="st2" d="M13.8,44.5c0,1.6,1.3,2.9,2.9,2.9s2.9-1.3,2.9-2.9v-3.6h-5.8V44.5z"/>
</svg>
