<?xml version="1.0" encoding="utf-8"?>
<!-- Generator: Adobe Illustrator 24.1.2, SVG Export Plug-In . SVG Version: 6.00 Build 0)  -->
<svg version="1.1" id="Ebene_1" xmlns="http://www.w3.org/2000/svg" xmlns:xlink="http://www.w3.org/1999/xlink" x="0px" y="0px"
	 width="70px" height="70px" viewBox="0 0 70 70" style="enable-background:new 0 0 70 70;" xml:space="preserve">
<style type="text/css">
	.st0{fill:#002677;}
</style>
<rect x="11.7" y="42.3" class="st0" width="46.7" height="4.4"/>
<polygon class="st0" points="11.7,38 11.7,40.8 58.3,40.8 58.3,19 53.7,19 "/>
<path class="st0" d="M35,0C15.7,0,0,15.7,0,35s15.7,35,35,35s35-15.7,35-35S54.3,0,35,0z M58.3,49.6H45.2V54c1.6,0,2.9,1.3,2.9,2.9
	H21.9c0-1.6,1.3-2.9,2.9-2.9v-4.4H11.7c-1.6,0-2.9-1.3-2.9-2.9V19c0-1.6,1.3-2.9,2.9-2.9h46.7c1.6,0,2.9,1.3,2.9,2.9v27.7
	C61.2,48.3,59.9,49.6,58.3,49.6z"/>
</svg>
