<?xml version="1.0" encoding="utf-8"?>
<!-- Generator: Adobe Illustrator 24.1.2, SVG Export Plug-In . SVG Version: 6.00 Build 0)  -->
<svg version="1.1" id="Ebene_1" xmlns="http://www.w3.org/2000/svg" xmlns:xlink="http://www.w3.org/1999/xlink" x="0px" y="0px"
	 width="70px" height="70px" viewBox="0 0 70 70" style="enable-background:new 0 0 70 70;" xml:space="preserve">
<style type="text/css">
	.st0{fill:none;}
	.st1{fill:#002677;}
</style>
<circle class="st0" cx="35" cy="35" r="35"/>
<path class="st1" d="M58.3,16H11.7c-1.6,0-2.9,1.3-2.9,2.9v27.7c0,1.6,1.3,2.9,2.9,2.9h13.1V54c-1.6,0-2.9,1.3-2.9,2.9h26.2
	c0-1.6-1.3-2.9-2.9-2.9v-4.4h13.1c1.6,0,2.9-1.3,2.9-2.9V19C61.2,17.3,59.9,16,58.3,16z M11.7,19h42l-42,19V19z M58.3,46.7H11.7
	v-4.4h46.7v4.4H58.3z"/>
</svg>
