<?xml version="1.0" encoding="utf-8"?>
<!-- Generator: Adobe Illustrator 24.1.2, SVG Export Plug-In . SVG Version: 6.00 Build 0)  -->
<svg version="1.1" id="Ebene_1" xmlns="http://www.w3.org/2000/svg" xmlns:xlink="http://www.w3.org/1999/xlink" x="0px" y="0px"
	 width="70px" height="70px" viewBox="0 0 70 70" style="enable-background:new 0 0 70 70;" xml:space="preserve">
<style type="text/css">
	.st0{fill:#002677;}
	.st1{fill:#FFFFFF;}
	.st2{fill:#00BED5;}
</style>
<circle class="st0" cx="35" cy="35" r="35"/>
<path class="st1" d="M59.8,24.9H39.3l7.3-3.3c1.5-0.7,2.1-2.4,1.5-3.9c-0.7-1.5-2.4-2.1-3.9-1.5l0,0l-19.6,8.9l0,0
	c-1.1,0.5-2,1.2-2.9,2v18.1c2,1.9,4.6,3,7.3,3h14.6c1.6,0,2.9-1.3,2.9-2.9c0-1.6-1.3-2.9-2.9-2.9h2.9c1.6,0,2.9-1.3,2.9-2.9
	s-1.3-2.9-2.9-2.9H48c1.6,0,2.9-1.3,2.9-2.9s-1.3-2.9-2.9-2.9h11.7c1.6,0,2.9-1.3,2.9-2.9S61.4,24.9,59.8,24.9z"/>
<path class="st2" d="M58.2,36.6c0,0-3.5,5.4-3.5,8.2c0,1.9,1.6,3.5,3.5,3.5s3.5-1.6,3.5-3.5C61.7,42,58.2,36.6,58.2,36.6z"/>
<polygon class="st2" points="15.6,48.3 21.9,48.3 21.9,26.4 5.8,26.4 "/>
</svg>
