<?xml version="1.0" encoding="utf-8"?>
<!-- Generator: Adobe Illustrator 24.1.2, SVG Export Plug-In . SVG Version: 6.00 Build 0)  -->
<svg version="1.1" id="Ebene_1" xmlns="http://www.w3.org/2000/svg" xmlns:xlink="http://www.w3.org/1999/xlink" x="0px" y="0px"
	 width="70px" height="70px" viewBox="0 0 70 70" style="enable-background:new 0 0 70 70;" xml:space="preserve">
<style type="text/css">
	.st0{fill:#002677;}
</style>
<polygon class="st0" points="17,46.1 19.7,46.1 19.7,28.6 9.2,28.6 "/>
<path class="st0" d="M35,0C15.7,0,0,15.7,0,35s15.7,35,35,35s35-15.7,35-35S54.3,0,35,0z M58.3,48.3c-1.9,0-3.5-1.6-3.5-3.5
	c0-2.8,3.5-8.2,3.5-8.2s3.5,5.4,3.5,8.2C61.8,46.7,60.2,48.3,58.3,48.3z M59.8,30.8H48.1c1.6,0,2.9,1.3,2.9,2.9
	c0,1.6-1.3,2.9-2.9,2.9h-1.5c1.6,0,2.9,1.3,2.9,2.9s-1.3,2.9-2.9,2.9h-2.9c1.6,0,2.9,1.3,2.9,2.9c0,1.6-1.3,2.9-2.9,2.9H29.2
	c-2.7,0-5.3-1.1-7.3-3v3h-6.3L5.8,26.4h16v0.8c0.8-0.8,1.8-1.5,2.9-2l0,0l19.6-8.9c1.5-0.7,3.2,0,3.9,1.5s0,3.2-1.5,3.9L39.4,25
	h20.4c1.6,0,2.9,1.3,2.9,2.9C62.7,29.5,61.4,30.8,59.8,30.8L59.8,30.8z"/>
</svg>
