<?xml version="1.0" encoding="utf-8"?>
<!-- Generator: Adobe Illustrator 24.1.2, SVG Export Plug-In . SVG Version: 6.00 Build 0)  -->
<svg version="1.1" id="Ebene_1" xmlns="http://www.w3.org/2000/svg" xmlns:xlink="http://www.w3.org/1999/xlink" x="0px" y="0px"
	 width="70px" height="70px" viewBox="0 0 70 70" style="enable-background:new 0 0 70 70;" xml:space="preserve">
<style type="text/css">
	.st0{fill:#002677;}
	.st1{fill:#FFFFFF;}
	.st2{fill:#00BED5;}
</style>
<circle class="st0" cx="35" cy="35" r="35"/>
<path class="st1" d="M29.2,19h-19v32h19c1.6,0,3.1,0.5,4.4,1.5V23.3C33.5,20.9,31.6,19,29.2,19z"/>
<path class="st1" d="M40.8,19c-2.4,0-4.4,2-4.4,4.4v29.2c1.3-1,2.8-1.5,4.4-1.5h19V19H40.8z"/>
<polygon class="st2" points="56.9,26.2 40.8,26.2 40.8,29.2 55.4,29.2 "/>
<polygon class="st2" points="40.8,36.5 55.4,36.5 56.9,33.5 40.8,33.5 "/>
<polygon class="st2" points="40.8,43.8 55.4,43.8 56.9,40.8 40.8,40.8 "/>
<polygon class="st2" points="13.1,43.8 27.7,43.8 29.2,40.8 13.1,40.8 "/>
<rect x="13.1" y="26.2" class="st2" width="16" height="10.2"/>
</svg>
