<?xml version="1.0" encoding="utf-8"?>
<!-- Generator: Adobe Illustrator 24.1.2, SVG Export Plug-In . SVG Version: 6.00 Build 0)  -->
<svg version="1.1" id="Ebene_1" xmlns="http://www.w3.org/2000/svg" xmlns:xlink="http://www.w3.org/1999/xlink" x="0px" y="0px"
	 width="70px" height="70px" viewBox="0 0 70 70" style="enable-background:new 0 0 70 70;" xml:space="preserve">
<style type="text/css">
	.st0{fill:#FFFFFF;}
	.st1{fill:#00BED5;}
	.st2{fill:#002677;}
</style>
<circle class="st0" cx="35" cy="35" r="35"/>
<polygon class="st1" points="56.9,26.2 40.8,26.2 40.8,29.2 55.4,29.2 "/>
<polygon class="st1" points="40.8,36.5 55.4,36.5 56.9,33.5 40.8,33.5 "/>
<polygon class="st1" points="40.8,43.8 55.4,43.8 56.9,40.8 40.8,40.8 "/>
<polygon class="st1" points="13.1,43.8 27.7,43.8 29.2,40.8 13.1,40.8 "/>
<rect x="13.1" y="26.2" class="st1" width="16" height="10.2"/>
<path class="st2" d="M40.8,16c-2.3,0-4.5,1.1-5.8,2.9c-1.4-1.8-3.5-2.9-5.8-2.9H7.3v38h21.9c1.2,0,2.4,0.5,3.2,1.4
	c1.3,1.4,3.5,1.5,5,0.2c0.1-0.1,0.2-0.2,0.2-0.2c0.8-0.9,2-1.4,3.2-1.4h21.9V16H40.8z M29.2,51h-19V19h19c2.4,0,4.4,2,4.4,4.4v29.2
	C32.3,51.6,30.7,51,29.2,51z M59.8,51h-19c-1.6,0-3.1,0.5-4.4,1.5V23.3c0-2.4,2-4.4,4.4-4.4h19V51z"/>
</svg>
