<?xml version="1.0" encoding="UTF-8"?>
<svg width="24px" height="24px" viewBox="0 0 24 24" version="1.1" xmlns="http://www.w3.org/2000/svg" xmlns:xlink="http://www.w3.org/1999/xlink">
    <!-- Generator: Sketch 64 (93537) - https://sketch.com -->
    <title>Fill 1</title>
    <desc>Created with Sketch.</desc>
    <g id="Symbols" stroke="none" stroke-width="1" fill="none" fill-rule="evenodd">
        <g id="Components/Share" transform="translate(-47.000000, 0.000000)" fill="#000000">
            <g id="Group-3" transform="translate(47.000000, 0.000000)">
                <path d="M22.7002,0 L1.3002,0 C0.6002,0 0.0002,0.6 0.0002,1.3 L0.0002,22.7 C0.0002,23.4 0.6002,24 1.3002,24 L12.8002,24 L12.8002,14.7 L9.7002,14.7 L9.7002,11.1 L12.8002,11.1 L12.8002,8.4 C12.8002,5.3 14.7002,3.6 17.5002,3.6 C18.8002,3.6 20.0002,3.7 20.3002,3.7 L20.3002,7 L18.4002,7 C16.9002,7 16.5992,7.7 16.5992,8.8 L16.5992,11.1 L20.2002,11.1 L19.7002,14.7 L16.5992,14.7 L16.5992,24 L22.7002,24 C23.4002,24 24.0002,23.4 24.0002,22.7 L24.0002,1.3 C24.0002,0.6 23.4002,0 22.7002,0" id="Fill-1"></path>
            </g>
        </g>
    </g>
</svg>