<?xml version="1.0" encoding="UTF-8"?>
<svg width="24px" height="24px" viewBox="0 0 24 24" version="1.1" xmlns="http://www.w3.org/2000/svg" xmlns:xlink="http://www.w3.org/1999/xlink">
    <!-- Generator: Sketch 64 (93537) - https://sketch.com -->
    <title>Fill 1</title>
    <desc>Created with Sketch.</desc>
    <g id="Symbols" stroke="none" stroke-width="1" fill="none" fill-rule="evenodd">
        <g id="Components/Share" transform="translate(-84.000000, 0.000000)" fill="#000000">
            <g id="Group-3" transform="translate(84.000000, 0.000000)">
                <path d="M18.9004,9.2002 C19.0994,13.8002 15.7004,19.0002 9.6004,19.0002 C7.7004,19.0002 6.0004,18.5002 4.6004,17.5002 C6.2994,17.7002 8.1004,17.2002 9.5004,16.0992 C8.1004,16.0992 6.9004,15.0992 6.4004,13.8002 C6.9004,13.9002 7.4004,13.9002 7.9004,13.7002 C6.2994,13.4002 5.2004,12.0002 5.2994,10.4002 C5.6004,10.8002 6.1004,11.0002 6.6004,11.0002 C5.1004,10.0002 4.7004,8.1002 5.6004,6.6002 C7.2004,8.6002 9.6004,9.9002 12.4004,10.0002 C11.9004,7.9002 13.5004,6.0002 15.5994,6.0002 C16.5004,6.0002 17.4004,6.4002 18.0004,7.0002 C18.7004,6.9002 19.5004,6.6002 20.0994,6.2002 C19.9004,7.0002 19.2994,7.6002 18.7004,8.0002 C19.4004,7.9002 20.0004,7.7002 20.5994,7.5002 C20.0994,8.2002 19.5004,8.8002 18.9004,9.2002 M19.0004,0.0002 L5.0004,0.0002 C2.2004,0.0002 0.0004,2.2002 0.0004,5.0002 L0.0004,19.0002 C0.0004,21.8002 2.2004,24.0002 5.0004,24.0002 L19.0004,24.0002 C21.7994,24.0002 24.0004,21.8002 24.0004,19.0002 L24.0004,5.0002 C24.0004,2.2002 21.7994,0.0002 19.0004,0.0002" id="Fill-1"></path>
            </g>
        </g>
    </g>
</svg>