<svg xmlns="http://www.w3.org/2000/svg" viewBox="0 0 443.92 69.06"><defs><style>.a{fill:#002677;}</style></defs><title>UHC_Lockup_Horiz_blu_RGB</title><path class="a" d="M440.82,27.7a3.15,3.15,0,1,0,3.1,3.15A3.06,3.06,0,0,0,440.82,27.7Zm0,5.78a2.64,2.64,0,1,1,2.54-2.65A2.51,2.51,0,0,1,440.82,33.48ZM168.5,27.78c-6.76,0-11.25,6.46-11.25,13.53S161.58,54.84,169,54.84c5.21,0,8.16-3.56,9.35-7.59l-2.22-.62c-1,2.79-2.84,5-6.46,5-4.18,0-7-4-7-10.28h16.06v-1.5C178.73,33.15,174.8,27.78,168.5,27.78Zm-5.73,11c.52-5,2.58-8.06,5.68-8.06,2.84,0,4.65,2.64,4.86,8.06ZM228.35,20l.77.06c1.91.1,3.36.87,3.36,3V34.34H219V23.08c0-2.17,1.45-2.89,3.36-3L223,20v-1.8H209.35V20l.77.06c1.91.1,3.36.87,3.36,3V49.42c0,2.17-1.45,2.94-3.36,3l-.77.06v1.8H223v-1.8l-.72-.06c-1.91-.15-3.36-.87-3.36-3V37.13h13.53V49.42c0,2.17-1.45,2.94-3.36,3l-.77.06v1.8H242v-1.8l-.72-.06c-1.91-.15-3.36-.87-3.36-3V23.08c0-2.17,1.45-2.89,3.36-3L242,20v-1.8H228.35Zm199.26,7.8c-6.76,0-11.25,6.46-11.25,13.53s4.33,13.53,11.77,13.53c5.22,0,8.16-3.56,9.35-7.59l-2.22-.62c-1,2.79-2.84,5-6.46,5-4.18,0-7-4-7-10.28h16.06v-1.5C437.84,33.15,433.91,27.78,427.61,27.78Zm-5.73,11c.52-5,2.58-8.06,5.68-8.06,2.84,0,4.65,2.64,4.86,8.06ZM98.43,18.18h-12V20l.78.06a3.69,3.69,0,0,1,3.61,3.82V41.78c0,5.83-3.05,9.39-7.8,9.39s-7.64-3.77-7.64-9.45V23.34c0-2,1.09-3.15,3.36-3.3l.72-.06v-1.8H65.75V20l.77.06c2.22.15,3.36,1.24,3.36,3.3V42.5c0,7.07,4.18,12.6,12.18,12.6,6.87,0,12-5.06,12-12.76V23.86A3.69,3.69,0,0,1,97.71,20l.72-.06Zm53.14,33.25c-2.17,0-2.9-1.6-2.9-3.46V31.24h7.08V28.56h-7.08v-8h-2.58c-1,6-4,8.16-7.23,8.83v1.81h4.75v17.3c0,4,2.43,6.3,6.3,6.3,3.62,0,6-2.63,7.08-6.4l-1.86-.52C154.41,50.09,153.22,51.43,151.57,51.43Zm-18.8-27.52a3.41,3.41,0,0,0,0-6.82,3.41,3.41,0,0,0,0,6.82ZM122.08,49.47V35.37c0-4-2.48-7.38-7.38-7.38a7.87,7.87,0,0,0-7.64,5.73V28.09l-8.68.67v1.71l1,.05c1.6.1,2.59.88,2.59,3V49.47c0,2.17-1.09,2.94-2.84,3.05l-.78,0v1.75h12.24V52.57l-.72,0c-1.76-.11-2.84-.88-2.84-3.05V41c.1-6.2,2.78-9.91,5.93-9.91,2.43,0,4,1.65,4,4.85V49.47c0,2.17-1.08,2.94-2.84,3.05l-.77,0v1.75h12.24V52.57l-.73,0C123.17,52.41,122.08,51.64,122.08,49.47Zm13.38,0V28.09l-8.94.67v1.71l1.29.05c1.6.05,2.59.88,2.59,3V49.47c0,2.17-1.09,2.94-2.84,3.05l-.78,0v1.75H139V52.57l-.72,0C136.54,52.41,135.46,51.64,135.46,49.47Zm68.67,0v-32l-8.78.77V20l1.14.06c1.6.05,2.58.87,2.58,3v9.3a7.31,7.31,0,0,0-7.18-4.6c-6.76,0-10.58,6.46-10.58,13.53s3.82,13.53,10.58,13.53a7.29,7.29,0,0,0,7.18-4.75v4.23h8.62V52.57l-.72,0C205.22,52.41,204.13,51.64,204.13,49.47ZM192.77,51.9c-3.61,0-6-4.08-6-10.59s2.38-10.59,6-10.59c3.82,0,6.3,4.14,6.3,10.59S196.59,51.9,192.77,51.9Zm151.5-2.43V35.37c0-4-2.48-7.38-7.38-7.38a7.87,7.87,0,0,0-7.64,5.73V17.51l-8.78.77V20l1.13.06c1.6.05,2.59.87,2.59,3V49.47c0,2.17-1.09,2.94-2.85,3.05l-.77,0v1.75h12.24V52.57l-.72,0c-1.76-.11-2.84-.88-2.84-3.05V41c.1-6.2,2.78-9.91,5.93-9.91,2.43,0,4,1.65,4,4.85V49.47c0,2.17-1.08,2.94-2.84,3.05l-.77,0v1.75h12.23V52.57l-.72,0C345.36,52.41,344.27,51.64,344.27,49.47Zm17.15,2.12c-4.19,0-7-4-7-10.28s2.79-10.48,7-10.48a5.08,5.08,0,0,1,4.19,1.75A2.87,2.87,0,0,0,364.26,35,2.75,2.75,0,0,0,367,37.7a2.79,2.79,0,0,0,2.74-3c0-3.1-3.1-6.92-8.62-6.92-7.7,0-12.14,6.46-12.14,13.53s4.34,13.53,11.77,13.53c5.12,0,8-3.41,9.14-7.28l-2.22-.67C366.68,49.52,364.93,51.59,361.42,51.59ZM391.21,50V36.56c0-5.53-3.46-8.78-9.29-8.78-5,0-9.45,3.31-9.45,7.08a2.74,2.74,0,1,0,5.47.1,2.81,2.81,0,0,0-1.4-2.43,5.51,5.51,0,0,1,4.6-2.06c3.15,0,5.06,2.37,5.06,6.35V38l-7.64,3.15c-5.11,2.11-6.87,4-6.87,7.33,0,3.87,2.79,6.35,7.18,6.35a7.81,7.81,0,0,0,7.28-5.06v.77c0,2.64,1.86,4.24,5,4.24a10.72,10.72,0,0,0,3.25-.47V52.57C392.19,52.83,391.21,52,391.21,50Zm-5.06-5.84c-.26,4.55-2.53,7.59-5.68,7.59a3.58,3.58,0,0,1-3.72-3.92,4.94,4.94,0,0,1,3.31-4.7l6.14-2.74ZM411,27.88c-3,0-5.58,2-6.72,5.48V28.09l-8.67.67v1.71l1,.05c1.6.1,2.58.88,2.58,3V49.47c0,2.17-1.08,2.94-2.84,3.05l-.77,0v1.75h12.24V52.57l-.73,0c-1.75-.11-2.84-.88-2.84-3.05V40.79c.11-6.45,2.9-10.48,6.3-10.48a2.11,2.11,0,0,1,1.71.67,2.7,2.7,0,0,0-1.45,2.43,2.76,2.76,0,0,0,2.74,2.74,2.82,2.82,0,0,0,2.74-3A5.12,5.12,0,0,0,411,27.88Zm30.76,3.06a.77.77,0,0,0,.55-.85c0-.64-.38-1-1.09-1h-1.66v3.47h.54v-1.4H441c.5,0,.65.2.68.76a1.46,1.46,0,0,0,.1.64h.63a.89.89,0,0,1-.17-.52C442.24,31.24,442.16,31.09,441.75,30.94Zm-.6-.2h-1.06V29.61h1c.44,0,.64.16.64.54A.53.53,0,0,1,441.15,30.74ZM286,50V36.56c0-5.53-3.45-8.78-9.29-8.78-5,0-9.45,3.31-9.45,7.08a2.74,2.74,0,1,0,5.47.1,2.8,2.8,0,0,0-1.39-2.43,5.5,5.5,0,0,1,4.6-2.06c3.15,0,5.06,2.37,5.06,6.35V38l-7.65,3.15c-5.11,2.11-6.86,4-6.86,7.33,0,3.87,2.78,6.35,7.17,6.35a7.8,7.8,0,0,0,7.28-5.06v.77c0,2.64,1.86,4.24,5,4.24a10.72,10.72,0,0,0,3.25-.47V52.57C287,52.83,286,52,286,50Zm-5.06-5.84c-.25,4.55-2.53,7.59-5.68,7.59a3.58,3.58,0,0,1-3.71-3.92,4.93,4.93,0,0,1,3.3-4.7L281,40.43Zm37.8,3.72c-.72,2.17-1.91,3.51-3.56,3.51-2.17,0-2.89-1.6-2.89-3.46V31.24h7.07V28.56h-7.07v-8h-2.58c-1,6-4,8.16-7.23,8.83v1.81h4.75v17.3c0,4,2.42,6.3,6.3,6.3,3.61,0,6-2.63,7.07-6.4ZM254.27,27.78c-6.76,0-11.26,6.46-11.26,13.53s4.34,13.53,11.78,13.53c5.21,0,8.16-3.56,9.34-7.59l-2.22-.62c-1,2.79-2.84,5-6.45,5-4.18,0-7-4-7-10.28h16.05v-1.5C264.49,33.15,260.57,27.78,254.27,27.78Zm-5.73,11c.52-5,2.58-8.06,5.68-8.06,2.84,0,4.65,2.64,4.85,8.06ZM299,49.47v-32l-8.78.77V20l1.14.06c1.6.05,2.58.87,2.58,3V49.47c0,2.17-1.09,2.94-2.84,3.05l-.78,0v1.75H302.6V52.57l-.72,0C300.12,52.41,299,51.64,299,49.47ZM11.06,65.9h0a21.54,21.54,0,0,0,7,1.15c10.48,0,17.8-7.61,17.8-22.06V1.9l4-1.9V45.74c0,14.74-7.6,23.32-18.37,23.32A19,19,0,0,1,11.06,65.9ZM6.51,61.52h0a23,23,0,0,0,7,1.32c8.81,0,14.69-5.53,14.69-18V5.18l3.91-1.84V45.16c0,13.07-6.62,19.76-15.84,19.76A16.63,16.63,0,0,1,6.51,61.52ZM3.74,57.6h0a21.27,21.27,0,0,0,5.82,1c6.86,0,11.06-3.75,11.06-13.6V8.52l3.86-1.84V44.47c0,11.06-5.07,16.07-12.33,16.07A13.72,13.72,0,0,1,3.74,57.6ZM17,46.08V10L0,17.68V46.94c0,5.59,3.51,9.34,8.7,9.34S17,52.47,17,46.08Z"/></svg>