<?xml version="1.0" encoding="UTF-8"?>
<svg width="171px" height="18px" viewBox="0 0 171 18" version="1.1" xmlns="http://www.w3.org/2000/svg" xmlns:xlink="http://www.w3.org/1999/xlink">
    <!-- Generator: Sketch 63.1 (92452) - https://sketch.com -->
    <title>Logo</title>
    <desc>Created with Sketch.</desc>
    <defs>
        <polygon id="path-1" points="0 0.0127898294 14.777819 0.0127898294 14.777819 16.6719594 0 16.6719594"></polygon>
    </defs>
    <g id="Mobile" stroke="none" stroke-width="1" fill="none" fill-rule="evenodd">
        <g id="Parent-with-Children" transform="translate(-91.000000, -21.000000)">
            <g id="Logo/Horizontal" transform="translate(91.000000, 20.000000)">
                <g id="Group-40" transform="translate(0.000000, 1.538462)">
                    <g id="Group-3" transform="translate(0.000000, 0.476344)">
                        <mask id="mask-2" fill="white">
                            <use xlink:href="#path-1"></use>
                        </mask>
                        <g id="Clip-2"></g>
                        <path d="M14.777819,0.0127898294 L9.33853804,0.0127898294 L9.33853804,0.828290312 L9.68863567,0.851392984 C10.6921534,0.921415513 11.3224246,1.64379079 11.3224246,2.57575732 L11.3224246,10.6607396 C11.3224246,13.2934915 9.94542166,14.9011516 7.7973448,14.9011516 C5.62635766,14.9011516 4.34195041,13.2003663 4.34195041,10.6373988 L4.34195041,2.34258706 C4.34195041,1.43396138 4.83237347,0.921415513 5.85975608,0.851392984 L6.18670479,0.828290312 L6.18670479,0.0127898294 L-2.38648691e-05,0.0127898294 L-2.38648691e-05,0.828290312 L0.350073764,0.851392984 C1.35383016,0.921415513 1.86764079,1.41085871 1.86764079,2.34258706 L1.86764079,10.9867969 C1.86764079,14.1790145 3.75845436,16.6719594 7.37732311,16.6719594 C10.4821426,16.6719594 12.8166041,14.3886057 12.8166041,10.9170126 L12.8166041,2.57575732 C12.8166041,1.66713164 13.423965,0.921415513 14.4511089,0.851392984 L14.777819,0.828290312 L14.777819,0.0127898294 Z" id="Fill-1" fill="#002677" mask="url(#mask-2)"></path>
                    </g>
                    <path d="M43.8661351,9.78550563 C44.0997722,7.52549276 45.0333659,6.1510029 46.4342337,6.1510029 C47.7184023,6.1510029 48.5352968,7.33924236 48.628847,9.78550563 L43.8661351,9.78550563 Z M46.4576213,4.82271838 C43.3993383,4.82271838 41.3681993,7.73532218 41.3681993,10.9273016 C41.3681993,14.119281 43.3294142,17.0316466 46.6910197,17.0316466 C49.0491074,17.0316466 50.3798125,15.4242247 50.9165334,13.6064969 L49.912777,13.3268832 C49.4457415,14.5853833 48.628847,15.5637934 46.9945808,15.5637934 C45.1037672,15.5637934 43.8195986,13.7698828 43.8195986,10.9273016 L51.0802464,10.9273016 L51.0802464,10.251608 C51.0802464,7.24611715 49.3058934,4.82271838 46.4576213,4.82271838 L46.4576213,4.82271838 Z" id="Fill-4" fill="#002677"></path>
                    <path d="M156.089059,4.86937625 C154.734728,4.86937625 153.567736,5.75466109 153.053686,7.33921854 L153.053686,4.96273962 L149.131972,5.26569424 L149.131972,6.03427486 L149.598531,6.05761571 C150.322591,6.10453556 150.765761,6.4539337 150.765761,7.43234374 L150.765761,14.6087004 C150.765761,15.5871104 150.275816,15.9365085 149.481831,15.9834284 L149.131972,16.0065311 L149.131972,16.7984525 L154.664804,16.7984525 L154.664804,16.0065311 L154.338094,15.9834284 C153.544109,15.9365085 153.053686,15.5871104 153.053686,14.6087004 L153.053686,10.6943457 C153.100461,7.78174187 154.361481,5.96449051 155.902197,5.96449051 C156.252295,5.96449051 156.485693,6.05761571 156.672555,6.26744512 C156.275444,6.47703637 156.018658,6.87311619 156.018658,7.36255938 C156.018658,8.03801481 156.579005,8.59724236 157.256051,8.59724236 C157.933336,8.59724236 158.493445,8.03801481 158.493445,7.24609334 C158.493445,5.7782401 157.396377,4.86937625 156.089059,4.86937625" id="Fill-6" fill="#002677"></path>
                    <path d="M57.4297335,15.703767 C55.7957059,15.703767 54.7215481,13.8629366 54.7215481,10.9272301 C54.7215481,7.99152366 55.7957059,6.15093145 57.4297335,6.15093145 C59.1573113,6.15093145 60.2780056,8.0148645 60.2780056,10.9272301 C60.2780056,13.8395958 59.1573113,15.703767 57.4297335,15.703767 M62.5659306,14.6086527 L62.5659306,0.186155134 L58.5969642,0.535791439 L58.5969642,1.30461023 L59.1105362,1.32795108 C59.8343577,1.35105375 60.2780056,1.72426907 60.2780056,2.70267911 L60.2780056,6.8964094 C59.7641949,5.59170389 58.5735766,4.82264693 57.0328607,4.82264693 C53.9743391,4.82264693 52.2467612,7.73525072 52.2467612,10.9272301 C52.2467612,14.1194477 53.9743391,17.0315752 57.0328607,17.0315752 C58.5735766,17.0315752 59.7641949,16.2394155 60.2780056,14.8882665 L60.2780056,16.7986431 L64.1765706,16.7986431 L64.1765706,16.0064834 L63.8498605,15.9833808 C63.056115,15.9366991 62.5659306,15.5873009 62.5659306,14.6086527" id="Fill-8" fill="#002677"></path>
                    <path d="M73.5151086,1.30458642 L73.8652063,1.32792726 C74.7288759,1.37437078 75.3830119,1.72424525 75.3830119,2.70265529 L75.3830119,7.78167042 L69.2662073,7.78167042 L69.2662073,2.70265529 C69.2662073,1.72424525 69.9198661,1.39771162 70.7837744,1.32792726 L71.1104844,1.30458642 L71.1104844,0.489085935 L64.9237558,0.489085935 L64.9237558,1.30458642 L65.2740921,1.32792726 C66.1377617,1.37437078 66.7914204,1.72424525 66.7914204,2.70265529 L66.7914204,14.5855262 C66.7914204,15.5636981 66.1377617,15.9133344 65.2740921,15.9597779 L64.9237558,15.9833569 L64.9237558,16.7986192 L71.1104844,16.7986192 L71.1104844,15.9833569 L70.7837744,15.9597779 C69.9198661,15.8899936 69.2662073,15.5636981 69.2662073,14.5855262 L69.2662073,9.04017058 L75.3830119,9.04017058 L75.3830119,14.5855262 C75.3830119,15.5636981 74.7288759,15.9133344 73.8652063,15.9597779 L73.5151086,15.9833569 L73.5151086,16.7986192 L79.7015986,16.7986192 L79.7015986,15.9833569 L79.3748886,15.9597779 C78.511219,15.8899936 77.8575602,15.5636981 77.8575602,14.5855262 L77.8575602,2.70265529 C77.8575602,1.72424525 78.511219,1.39771162 79.3748886,1.32792726 L79.7015986,1.30458642 L79.7015986,0.489085935 L73.5151086,0.489085935 L73.5151086,1.30458642 Z" id="Fill-10" fill="#002677"></path>
                    <path d="M31.5165427,14.6087242 L31.5165427,4.96276344 L27.4778909,5.26547988 L27.4778909,6.03429868 L28.061387,6.05763952 C28.7852084,6.08121854 29.2288563,6.45395752 29.2288563,7.43236756 L29.2288563,14.6087242 C29.2288563,15.5871342 28.7384333,15.9365323 27.9446877,15.983214 L27.5943515,16.0065549 L27.5943515,16.7984763 L33.1274214,16.7984763 L33.1274214,16.0065549 L32.8007113,15.983214 C32.0069658,15.9365323 31.5165427,15.5871342 31.5165427,14.6087242" id="Fill-12" fill="#002677"></path>
                    <path d="M169.575502,7.39356936 C168.912059,7.39356936 168.426409,6.89507564 168.426409,6.20556807 C168.426409,5.51606051 168.912059,5.01089797 169.582184,5.01089797 C170.238946,5.01089797 170.724596,5.51606051 170.724596,6.19866109 C170.724596,6.89507564 170.245866,7.39356936 169.575502,7.39356936 M169.575502,4.78558738 C168.781995,4.78558738 168.173203,5.39316382 168.173203,6.19199228 C168.173203,7.01130351 168.775075,7.62578693 169.575502,7.62578693 C170.369009,7.62578693 170.977802,7.00439652 170.977802,6.20556807 C170.977802,5.40007081 170.369009,4.78558738 169.575502,4.78558738" id="Fill-14" fill="#002677"></path>
                    <path d="M25.4701633,14.6087242 L25.4701633,8.24786804 C25.4701633,6.43061667 24.3494691,4.91631992 22.1314682,4.91631992 C20.5673646,4.91631992 19.213272,5.84804828 18.6765511,7.50215192 L18.6765511,4.96276344 L14.7541212,5.26547988 L14.7541212,6.03429868 L15.2211567,6.05763952 C15.9447395,6.10432121 16.3886261,6.45395752 16.3886261,7.43236756 L16.3886261,14.6087242 C16.3886261,15.5871342 15.898203,15.9365323 15.1042188,15.983214 L14.7541212,16.0065549 L14.7541212,16.7984763 L20.2871911,16.7984763 L20.2871911,16.0065549 L19.960481,15.983214 C19.1664968,15.9365323 18.6765511,15.5871342 18.6765511,14.6087242 L18.6765511,10.7874947 C18.7233262,7.99159511 19.9370934,6.31391246 21.3613488,6.31391246 C22.4586555,6.31391246 23.1822383,7.05962858 23.1822383,8.50414097 L23.1822383,14.6087242 C23.1822383,15.5871342 22.6918153,15.9365323 21.8983084,15.983214 L21.5477335,16.0065549 L21.5477335,16.7984763 L27.0808033,16.7984763 L27.0808033,16.0065549 L26.7540933,15.983214 C25.9605864,15.9365323 25.4701633,15.5871342 25.4701633,14.6087242" id="Fill-16" fill="#002677"></path>
                    <path d="M38.8002201,15.4939614 C37.8198512,15.4939614 37.4929025,14.7715861 37.4929025,13.9327448 L37.4929025,6.38388735 L40.6912723,6.38388735 L40.6912723,5.17230705 L37.4929025,5.17230705 L37.4929025,1.58424783 L36.3256718,1.58424783 C35.8817852,4.28678404 34.5047823,5.26567042 33.057378,5.56862504 L33.057378,6.38388735 L35.2049775,6.38388735 L35.2049775,14.1890177 C35.2049775,16.0065072 36.3022842,17.031599 38.0532497,17.031599 C39.6872772,17.031599 40.7611963,15.8435977 41.2516194,14.1425742 L40.4110987,13.9096421 C40.0843887,14.8882903 39.5474291,15.4939614 38.8002201,15.4939614" id="Fill-18" fill="#002677"></path>
                    <path d="M30.3025607,3.075299 C31.0963062,3.075299 31.7967401,2.39984358 31.7967401,1.51432057 C31.7967401,0.67547924 31.0963062,2.3817187e-05 30.3025607,2.3817187e-05 C29.4854276,2.3817187e-05 28.8083812,0.67547924 28.8083812,1.51432057 C28.8083812,2.39984358 29.4854276,3.075299 30.3025607,3.075299" id="Fill-20" fill="#002677"></path>
                    <path d="M161.014696,9.78550563 C161.248333,7.52549276 162.182166,6.1510029 163.583034,6.1510029 C164.867202,6.1510029 165.683858,7.33924236 165.777647,9.78550563 L161.014696,9.78550563 Z M163.606183,4.82271838 C160.548138,4.82271838 158.516761,7.73532218 158.516761,10.9273016 C158.516761,14.119281 160.477737,17.0316466 163.83982,17.0316466 C166.197669,17.0316466 167.528612,15.4242247 168.065095,13.6064969 L167.061577,13.3268832 C166.594541,14.5853833 165.777647,15.5637934 164.143142,15.5637934 C162.252329,15.5637934 160.96816,13.7698828 160.96816,10.9273016 L168.228808,10.9273016 L168.228808,10.251608 C168.228808,7.24611715 166.454455,4.82271838 163.606183,4.82271838 L163.606183,4.82271838 Z" id="Fill-22" fill="#002677"></path>
                    <path d="M125.926108,14.6087242 L125.926108,8.24786804 C125.926108,6.43061667 124.805414,4.91631992 122.587413,4.91631992 C121.023309,4.91631992 119.669216,5.84804828 119.132496,7.50215192 L119.132496,0.186226585 L115.163529,0.53586289 L115.163529,1.30468169 L115.67734,1.32778436 C116.400923,1.3511252 116.844332,1.72410235 116.844332,2.70275056 L116.844332,14.6087242 C116.844332,15.5871342 116.354148,15.9365323 115.560163,15.983214 L115.210304,16.0065549 L115.210304,16.7984763 L120.743136,16.7984763 L120.743136,16.0065549 L120.416426,15.983214 C119.622441,15.9365323 119.132496,15.5871342 119.132496,14.6087242 L119.132496,10.7874947 C119.179271,7.99159511 120.393038,6.31391246 121.817055,6.31391246 C122.9146,6.31391246 123.638183,7.05962858 123.638183,8.50414097 L123.638183,14.6087242 C123.638183,15.5871342 123.14776,15.9365323 122.354253,15.983214 L122.003678,16.0065549 L122.003678,16.7984763 L127.536748,16.7984763 L127.536748,16.0065549 L127.210038,15.983214 C126.416531,15.9365323 125.926108,15.5871342 125.926108,14.6087242" id="Fill-24" fill="#002677"></path>
                    <path d="M133.676821,15.5637457 C131.785768,15.5637457 130.5016,13.7698352 130.5016,10.9272539 C130.5016,8.03799099 131.76262,6.19763695 133.653433,6.19763695 C134.493954,6.19763695 135.147613,6.47725072 135.544485,6.98979659 C135.194149,7.22272868 134.960989,7.6188085 134.960989,8.06133183 C134.960989,8.7372636 135.521336,9.29649115 136.198144,9.29649115 C136.898578,9.29649115 137.435538,8.7372636 137.435538,7.94510396 C137.435538,6.54703508 136.03467,4.82267074 133.536734,4.82267074 C130.058191,4.82267074 128.050439,7.73527454 128.050439,10.9272539 C128.050439,14.1194715 130.011654,17.031599 133.373498,17.031599 C135.684572,17.031599 136.992128,15.4939614 137.505462,13.7464944 L136.501705,13.4437779 C136.058057,14.6320174 135.264312,15.5637457 133.676821,15.5637457" id="Fill-26" fill="#002677"></path>
                    <path d="M144.859278,12.2321262 C144.742817,14.2823096 143.715435,15.6570377 142.291179,15.6570377 C141.264274,15.6570377 140.610615,14.9580032 140.610615,13.8862298 C140.610615,12.9311606 141.123949,12.1854445 142.104795,11.7660238 L144.882904,10.5311027 L144.859278,12.2321262 Z M147.147442,14.8651162 L147.147442,8.78387383 C147.147442,6.2906907 145.583338,4.82283746 142.945077,4.82283746 C140.680539,4.82283746 138.672788,6.31379337 138.672788,8.01481687 C138.672788,8.73719215 139.209747,9.2964197 139.910181,9.2964197 C140.587466,9.2964197 141.147097,8.73719215 141.147097,8.06126038 C141.147097,7.59563437 140.890789,7.17597554 140.517065,6.96662247 C140.937325,6.38405407 141.684296,6.03441777 142.59474,6.03441777 C144.018996,6.03441777 144.882904,7.10619118 144.882904,8.90033988 L144.882904,9.43622659 L141.42751,10.8576363 C139.116674,11.8124673 138.322452,12.6515468 138.322452,14.1658436 C138.322452,15.9133106 139.583233,17.0315275 141.567596,17.0315275 C143.061776,17.0315275 144.298931,16.12314 144.859278,14.7481738 L144.859278,15.0975719 C144.859278,16.2862877 145.699799,17.0084248 147.100905,17.0084248 C147.661013,17.0084248 148.104423,16.9386405 148.571697,16.7985954 L148.571697,16.006674 C147.591089,16.12314 147.147442,15.7501629 147.147442,14.8651162 L147.147442,14.8651162 Z" id="Fill-28" fill="#002677"></path>
                    <path d="M97.2807953,12.2321262 C97.1643347,14.2823096 96.1369521,15.6570377 94.7126967,15.6570377 C93.6857914,15.6570377 93.0321327,14.9580032 93.0321327,13.8862298 C93.0321327,12.9311606 93.545466,12.1854445 94.5263121,11.7660238 L97.3041829,10.5311027 L97.2807953,12.2321262 Z M99.5687203,14.8651162 L99.5687203,8.78387383 C99.5687203,6.2906907 98.0046168,4.82283746 95.3665941,4.82283746 C93.1020567,4.82283746 91.0943053,6.31379337 91.0943053,8.01481687 C91.0943053,8.73719215 91.6312648,9.2964197 92.3314601,9.2964197 C93.0087451,9.2964197 93.5690922,8.73719215 93.5690922,8.06126038 C93.5690922,7.59563437 93.3123062,7.17597554 92.9385824,6.96662247 C93.3588427,6.38405407 94.1058131,6.03441777 95.0162579,6.03441777 C96.4405132,6.03441777 97.3041829,7.10619118 97.3041829,8.90033988 L97.3041829,9.43622659 L93.8490271,10.8576363 C91.5379532,11.8124673 90.743969,12.6515468 90.743969,14.1658436 C90.743969,15.9133106 92.00475,17.0315275 93.9891139,17.0315275 C95.4832934,17.0315275 96.7204482,16.12314 97.2807953,14.7481738 L97.2807953,15.0975719 C97.2807953,16.2862877 98.121316,17.0084248 99.5221838,17.0084248 C100.082531,17.0084248 100.52594,16.9386405 100.992976,16.7985954 L100.992976,16.006674 C100.012368,16.12314 99.5687203,15.7501629 99.5687203,14.8651162 L99.5687203,14.8651162 Z" id="Fill-30" fill="#002677"></path>
                    <path d="M82.6433017,9.78550563 C82.8769388,7.52549276 83.8105325,6.1510029 85.2114003,6.1510029 C86.4953302,6.1510029 87.3124634,7.33924236 87.405775,9.78550563 L82.6433017,9.78550563 Z M85.2347879,4.82271838 C82.1762662,4.82271838 80.1451272,7.73532218 80.1451272,10.9273016 C80.1451272,14.119281 82.1063422,17.0316466 85.4681863,17.0316466 C87.826274,17.0316466 89.1567404,15.4242247 89.6937,13.6064969 L88.6899436,13.3268832 C88.2229081,14.5853833 87.405775,15.5637934 85.7717474,15.5637934 C83.8806952,15.5637934 82.5967652,13.7698828 82.5967652,10.9273016 L89.857413,10.9273016 L89.857413,10.251608 C89.857413,7.24611715 88.08306,4.82271838 85.2347879,4.82271838 L85.2347879,4.82271838 Z" id="Fill-32" fill="#002677"></path>
                    <path d="M114.370046,13.9095706 C114.043097,14.8882189 113.506138,15.4938899 112.758929,15.4938899 C111.77856,15.4938899 111.451611,14.7715146 111.451611,13.9329115 L111.451611,6.38405407 L114.65022,6.38405407 L114.65022,5.1722356 L111.451611,5.1722356 L111.451611,1.58417638 L110.284381,1.58417638 C109.840733,4.28695076 108.463252,5.26559897 107.016087,5.56855359 L107.016087,6.38405407 L109.163925,6.38405407 L109.163925,14.1891844 C109.163925,16.006674 110.260993,17.0315275 112.011958,17.0315275 C113.646225,17.0315275 114.720144,15.8435262 115.210328,14.1427409 L114.370046,13.9095706 Z" id="Fill-34" fill="#002677"></path>
                    <path d="M169.726066,6.15781461 L169.247098,6.15781461 L169.247098,5.64574509 L169.705542,5.64574509 C169.903859,5.64574509 169.992636,5.7210074 169.992636,5.89153846 C169.992636,6.06230769 169.896938,6.15781461 169.726066,6.15781461 M169.999557,6.24665272 C170.184271,6.1647216 170.245843,6.07588349 170.245843,5.86438687 C170.245843,5.57738977 170.07497,5.42734149 169.753272,5.42734149 L169.000812,5.42734149 L169.000812,6.99070164 L169.247098,6.99070164 L169.247098,6.36264242 L169.671415,6.36264242 C169.896938,6.36264242 169.96543,6.45148053 169.979272,6.70394271 C169.985954,6.86780496 169.985954,6.88161893 170.027002,6.99070164 L170.307653,6.99070164 C170.273287,6.96355005 170.23224,6.84065336 170.23224,6.75848407 C170.218398,6.3831252 170.184271,6.31476987 169.999557,6.24665272" id="Fill-36" fill="#002677"></path>
                    <path d="M105.475252,14.6087242 L105.475252,0.186226585 L101.506524,0.53586289 L101.506524,1.30468169 L102.019857,1.32778436 C102.743917,1.3511252 103.187327,1.72410235 103.187327,2.70275056 L103.187327,14.6087242 C103.187327,15.5871342 102.697142,15.9365323 101.903397,15.983214 L101.553299,16.0065549 L101.553299,16.7984763 L107.086369,16.7984763 L107.086369,16.0065549 L106.75942,15.983214 C105.965675,15.9365323 105.475252,15.5871342 105.475252,14.6087242" id="Fill-38" fill="#002677"></path>
                </g>
            </g>
        </g>
    </g>
</svg>