<svg id="eba94bc2-f15f-421d-93ad-16df37d0b05d" data-name="Artwork" xmlns="http://www.w3.org/2000/svg" viewBox="0 0 177.59 72"><path d="M96.64.7h27.75V4.63c-5.63.2-8.14,2.21-8.14,6.53V60.64c0,4.32,2.51,6.33,8.14,6.53V71.1H96.64V67.17c5.63-.2,8-2.11,8-6.53v-23H81.86v23c0,4.32,2.41,6.33,7.94,6.53V71.1H62.05V67.17c5.73-.2,8.24-2.11,8.24-6.53V13C70.29,8,68,4.73,62.05,4.73S53.8,8,53.8,13v35.4C53.8,62.25,44.45,72,31.17,72,17.09,72,8.05,62.85,8.05,48.67V11.16c0-4.42-2.42-6.33-8-6.53V.7H27.65V4.63c-5.63.2-8,2.21-8,6.53V47.77c0,10.15,5.33,16.49,13.78,16.49,8.64,0,14.07-6.34,14.07-16.49V12.67c0-5-3-7.94-8.44-8V.7H89.9V4.63c-5.63.2-8,2.11-8,6.53v21h22.82v-21c0-4.42-2.41-6.33-8-6.53Zm76.12,51c-3.72,7.94-9.15,12.37-16.29,12.37-10.56,0-17.6-10.66-17.6-28.36s6.94-28.56,17.9-28.56c5.33,0,9.66,1.91,11.77,5.33a6.44,6.44,0,0,0-3.82,5.83,6.53,6.53,0,0,0,6.33,6.44,6.7,6.7,0,0,0,6.44-7c0-9.76-9.25-17.7-21.72-17.7C137.06,0,126.3,17.4,126.3,36.6c0,18.61,10.86,35.4,28.46,35.4,11.57,0,18.6-7.84,22.83-18.2Z" fill="#fff"/></svg>